<?xml version="1.0" encoding="utf-8"?>
<!-- Generator: Adobe Illustrator 25.1.0, SVG Export Plug-In . SVG Version: 6.00 Build 0)  -->
<svg version="1.2" baseProfile="tiny" id="Layer_1" xmlns="http://www.w3.org/2000/svg" xmlns:xlink="http://www.w3.org/1999/xlink"
	 x="0px" y="0px" viewBox="0 0 250 250" overflow="visible" xml:space="preserve">
<g display="none">
	<path display="inline" fill="#FFFFFF" d="M238.98,172.71H11.02c2.68,6.41,5.89,12.54,9.57,18.34h208.81
		C233.09,185.24,236.3,179.11,238.98,172.71z"/>
	<path display="inline" fill="#FFFFFF" d="M127.15,39.38h86.89c-6.68-6.94-14.16-13.11-22.3-18.35h-64.59V39.38z"/>
	<path display="inline" fill="#FFFFFF" d="M214.05,210.62H35.95c6.68,6.94,14.16,13.11,22.3,18.35h133.49
		C199.88,223.73,207.37,217.56,214.05,210.62z"/>
	<path display="inline" fill="#FFFFFF" d="M127.15,77.3h111.83c-2.69-6.41-5.9-12.54-9.58-18.35H127.15V77.3z"/>
	<path display="inline" fill="#FFFFFF" d="M127.15,115.21h120.99c-0.49-6.26-1.45-12.38-2.83-18.34H127.15V115.21z"/>
	<path display="inline" fill="#FFFFFF" d="M248.15,134.79H127.15H1.85c0.49,6.26,1.45,12.38,2.83,18.34h240.63
		C246.7,147.17,247.66,141.05,248.15,134.79z"/>
	<path display="inline" fill="#2F4597" d="M127.15,115.21V96.87V77.3V58.95V39.38V21.04V1.5c-0.72-0.01-1.43-0.03-2.15-0.03
		c-15.75,0-30.8,2.95-44.65,8.32l1.09,3.35h5.52l-4.47,3.25l1.71,5.26l-4.47-3.25l-4.47,3.25l1.71-5.26l-4.45-3.24
		C49.67,23.89,30.66,41.4,18.07,63.11l1.11,3.4h5.53l-4.47,3.25l1.71,5.26l-4.48-3.25L13,75.02l1.71-5.26l-0.16-0.12
		C9.05,80.59,5.13,92.45,3.09,104.96l0.51,1.58h5.53l-4.48,3.25l1.71,5.26l-4.22-3.07C1.7,116.26,1.47,120.6,1.47,125
		c0,3.29,0.13,6.56,0.39,9.79h125.3V115.21z M21.94,128.39l-4.48-3.25L13,128.39l1.71-5.26l-4.47-3.25h5.53l1.71-5.26l1.71,5.26
		h5.53l-4.47,3.25L21.94,128.39z M20.23,96.45l1.71,5.26l-4.48-3.25L13,101.7l1.71-5.26l-4.47-3.25h5.53l1.71-5.26l1.71,5.26h5.53
		L20.23,96.45z M35.8,109.78l1.71,5.26l-4.47-3.25l-4.47,3.25l1.71-5.26l-4.47-3.25h5.52l1.71-5.26l1.71,5.26h5.52L35.8,109.78z
		 M35.8,83.1l1.71,5.26l-4.47-3.25l-4.47,3.25l1.71-5.26l-4.47-3.25h5.52l1.71-5.26l1.71,5.26h5.52L35.8,83.1z M35.8,56.42
		l1.71,5.26l-4.47-3.25l-4.47,3.25l1.71-5.26l-4.47-3.25h5.52l1.71-5.26l1.71,5.26h5.52L35.8,56.42z M53.07,128.39l-4.47-3.25
		l-4.47,3.25l1.71-5.26l-4.48-3.25h5.53l1.71-5.26l1.71,5.26h5.53l-4.48,3.25L53.07,128.39z M51.36,96.45l1.71,5.26l-4.47-3.25
		l-4.47,3.25l1.71-5.26l-4.48-3.25h5.53l1.71-5.26l1.71,5.26h5.53L51.36,96.45z M51.36,69.76l1.71,5.26l-4.47-3.25l-4.47,3.25
		l1.71-5.26l-4.48-3.25h5.53l1.71-5.26l1.71,5.26h5.53L51.36,69.76z M51.36,43.08l1.71,5.26l-4.47-3.25l-4.47,3.25l1.71-5.26
		l-4.48-3.25h5.53l1.71-5.26l1.71,5.26h5.53L51.36,43.08z M66.92,109.78l1.71,5.26l-4.48-3.25l-4.47,3.25l1.71-5.26l-4.47-3.25h5.53
		l1.71-5.26l1.71,5.26h5.53L66.92,109.78z M66.92,83.1l1.71,5.26l-4.48-3.25l-4.47,3.25l1.71-5.26l-4.47-3.25h5.53l1.71-5.26
		l1.71,5.26h5.53L66.92,83.1z M66.92,56.42l1.71,5.26l-4.48-3.25l-4.47,3.25l1.71-5.26l-4.47-3.25h5.53l1.71-5.26l1.71,5.26h5.53
		L66.92,56.42z M66.92,29.73l1.71,5.26l-4.48-3.25l-4.47,3.25l1.71-5.26l-4.47-3.25h5.53l1.71-5.26l1.71,5.26h5.53L66.92,29.73z
		 M84.2,128.39l-4.47-3.25l-4.47,3.25l1.71-5.26l-4.47-3.25h5.52l1.71-5.26l1.71,5.26h5.52l-4.47,3.25L84.2,128.39z M82.49,96.45
		l1.71,5.26l-4.47-3.25l-4.47,3.25l1.71-5.26l-4.47-3.25h5.52l1.71-5.26l1.71,5.26h5.52L82.49,96.45z M82.49,69.76l1.71,5.26
		l-4.47-3.25l-4.47,3.25l1.71-5.26l-4.47-3.25h5.52l1.71-5.26l1.71,5.26h5.52L82.49,69.76z M82.49,43.08l1.71,5.26l-4.47-3.25
		l-4.47,3.25l1.71-5.26l-4.47-3.25h5.52l1.71-5.26l1.71,5.26h5.52L82.49,43.08z M98.06,109.78l1.71,5.26l-4.47-3.25l-4.48,3.25
		l1.71-5.26l-4.47-3.25h5.53l1.71-5.26l1.71,5.26h5.53L98.06,109.78z M98.06,83.1l1.71,5.26l-4.47-3.25l-4.48,3.25l1.71-5.26
		l-4.47-3.25h5.53l1.71-5.26L97,79.85h5.53L98.06,83.1z M98.06,56.42l1.71,5.26l-4.47-3.25l-4.48,3.25l1.71-5.26l-4.47-3.25h5.53
		l1.71-5.26L97,53.17h5.53L98.06,56.42z M98.06,29.73l1.71,5.26l-4.47-3.25l-4.48,3.25l1.71-5.26l-4.47-3.25h5.53l1.71-5.26
		L97,26.48h5.53L98.06,29.73z M115.33,128.39l-4.48-3.25l-4.47,3.25l1.71-5.26l-4.47-3.25h5.53l1.71-5.26l1.71,5.26h5.53l-4.47,3.25
		L115.33,128.39z M113.62,96.45l1.71,5.26l-4.48-3.25l-4.47,3.25l1.71-5.26l-4.47-3.25h5.53l1.71-5.26l1.71,5.26h5.53L113.62,96.45z
		 M113.62,69.76l1.71,5.26l-4.48-3.25l-4.47,3.25l1.71-5.26l-4.47-3.25h5.53l1.71-5.26l1.71,5.26h5.53L113.62,69.76z M113.62,43.08
		l1.71,5.26l-4.48-3.25l-4.47,3.25l1.71-5.26l-4.47-3.25h5.53l1.71-5.26l1.71,5.26h5.53L113.62,43.08z M113.62,16.39l1.71,5.26
		l-4.48-3.25l-4.47,3.25l1.71-5.26l-4.47-3.25h5.53l1.71-5.26l1.71,5.26h5.53L113.62,16.39z"/>
	<path display="inline" fill="#2F4597" d="M78.92,10.36c-2.16,0.87-4.29,1.8-6.39,2.79h5.49L78.92,10.36z"/>
	<path display="inline" fill="#E41513" d="M191.75,21.04C173.06,9.02,150.92,1.9,127.15,1.5v19.54H191.75z"/>
	<path display="inline" fill="#E41513" d="M127.15,58.95h102.25c-4.46-7.04-9.61-13.59-15.36-19.57h-86.89V58.95z"/>
	<path display="inline" fill="#E41513" d="M127.15,96.87h118.16c-1.57-6.75-3.7-13.29-6.33-19.57H127.15V96.87z"/>
	<path display="inline" fill="#E41513" d="M127.15,134.79h120.99c0.25-3.23,0.39-6.49,0.39-9.79c0-3.3-0.13-6.56-0.39-9.79H127.15
		V134.79z"/>
	<path display="inline" fill="#E41513" d="M245.31,153.13H4.69c1.57,6.76,3.7,13.3,6.33,19.58h227.96
		C241.61,166.43,243.74,159.88,245.31,153.13z"/>
	<path display="inline" fill="#E41513" d="M229.41,191.05H20.59c4.46,7.04,9.61,13.59,15.36,19.57h178.09
		C219.79,204.64,224.95,198.09,229.41,191.05z"/>
	<path display="inline" fill="#E41513" d="M58.25,228.96c19.25,12.38,42.16,19.57,66.75,19.57c24.59,0,47.5-7.19,66.75-19.57H58.25z
		"/>
	<path display="inline" fill="#FFFFFF" d="M75.25,21.65l4.47-3.25l4.47,3.25l-1.71-5.26l4.47-3.25h-5.52l-1.09-3.35
		c-0.48,0.18-0.95,0.37-1.43,0.56l-0.91,2.79h-5.49c-0.01,0-0.02,0.01-0.02,0.01l4.45,3.24L75.25,21.65z"/>
	<polygon display="inline" fill="#FFFFFF" points="110.85,7.88 109.15,13.14 103.62,13.14 108.09,16.39 106.39,21.65 110.85,18.4 
		115.33,21.65 113.62,16.39 118.09,13.14 112.56,13.14 	"/>
	<polygon display="inline" fill="#FFFFFF" points="65.87,26.48 64.16,21.22 62.45,26.48 56.92,26.48 61.4,29.73 59.69,34.99 
		64.16,31.74 68.64,34.99 66.92,29.73 71.4,26.48 	"/>
	<polygon display="inline" fill="#FFFFFF" points="97,26.48 95.29,21.22 93.58,26.48 88.06,26.48 92.53,29.73 90.82,34.99 
		95.29,31.74 99.76,34.99 98.06,29.73 102.53,26.48 	"/>
	<polygon display="inline" fill="#FFFFFF" points="48.59,34.57 46.89,39.83 41.36,39.83 45.83,43.08 44.12,48.33 48.59,45.09 
		53.07,48.33 51.36,43.08 55.83,39.83 50.3,39.83 	"/>
	<polygon display="inline" fill="#FFFFFF" points="79.73,34.57 78.02,39.83 72.49,39.83 76.96,43.08 75.25,48.33 79.73,45.09 
		84.2,48.33 82.49,43.08 86.96,39.83 81.44,39.83 	"/>
	<polygon display="inline" fill="#FFFFFF" points="110.85,34.57 109.15,39.83 103.62,39.83 108.09,43.08 106.39,48.33 110.85,45.09 
		115.33,48.33 113.62,43.08 118.09,39.83 112.56,39.83 	"/>
	<polygon display="inline" fill="#FFFFFF" points="34.74,53.17 33.03,47.91 31.32,53.17 25.8,53.17 30.27,56.42 28.56,61.68 
		33.03,58.42 37.5,61.68 35.8,56.42 40.27,53.17 	"/>
	<polygon display="inline" fill="#FFFFFF" points="65.87,53.17 64.16,47.91 62.45,53.17 56.92,53.17 61.4,56.42 59.69,61.68 
		64.16,58.42 68.64,61.68 66.92,56.42 71.4,53.17 	"/>
	<polygon display="inline" fill="#FFFFFF" points="97,53.17 95.29,47.91 93.58,53.17 88.06,53.17 92.53,56.42 90.82,61.68 
		95.29,58.42 99.76,61.68 98.06,56.42 102.53,53.17 	"/>
	<path display="inline" fill="#FFFFFF" d="M13,75.02l4.47-3.25l4.48,3.25l-1.71-5.26l4.47-3.25h-5.53l-1.11-3.4
		c-1.24,2.14-2.41,4.32-3.53,6.53l0.16,0.12L13,75.02z"/>
	<polygon display="inline" fill="#FFFFFF" points="48.59,61.25 46.89,66.51 41.36,66.51 45.83,69.76 44.12,75.02 48.59,71.77 
		53.07,75.02 51.36,69.76 55.83,66.51 50.3,66.51 	"/>
	<polygon display="inline" fill="#FFFFFF" points="79.73,61.25 78.02,66.51 72.49,66.51 76.96,69.76 75.25,75.02 79.73,71.77 
		84.2,75.02 82.49,69.76 86.96,66.51 81.44,66.51 	"/>
	<polygon display="inline" fill="#FFFFFF" points="110.85,61.25 109.15,66.51 103.62,66.51 108.09,69.76 106.39,75.02 110.85,71.77 
		115.33,75.02 113.62,69.76 118.09,66.51 112.56,66.51 	"/>
	<polygon display="inline" fill="#FFFFFF" points="34.74,79.85 33.03,74.59 31.32,79.85 25.8,79.85 30.27,83.1 28.56,88.36 
		33.03,85.11 37.5,88.36 35.8,83.1 40.27,79.85 	"/>
	<polygon display="inline" fill="#FFFFFF" points="65.87,79.85 64.16,74.59 62.45,79.85 56.92,79.85 61.4,83.1 59.69,88.36 
		64.16,85.11 68.64,88.36 66.92,83.1 71.4,79.85 	"/>
	<polygon display="inline" fill="#FFFFFF" points="97,79.85 95.29,74.59 93.58,79.85 88.06,79.85 92.53,83.1 90.82,88.36 
		95.29,85.11 99.76,88.36 98.06,83.1 102.53,79.85 	"/>
	<polygon display="inline" fill="#FFFFFF" points="17.46,87.93 15.76,93.19 10.23,93.19 14.7,96.45 13,101.7 17.46,98.45 
		21.94,101.7 20.23,96.45 24.7,93.19 19.17,93.19 	"/>
	<polygon display="inline" fill="#FFFFFF" points="48.59,87.93 46.89,93.19 41.36,93.19 45.83,96.45 44.12,101.7 48.59,98.45 
		53.07,101.7 51.36,96.45 55.83,93.19 50.3,93.19 	"/>
	<polygon display="inline" fill="#FFFFFF" points="79.73,87.93 78.02,93.19 72.49,93.19 76.96,96.45 75.25,101.7 79.73,98.45 
		84.2,101.7 82.49,96.45 86.96,93.19 81.44,93.19 	"/>
	<polygon display="inline" fill="#FFFFFF" points="110.85,87.93 109.15,93.19 103.62,93.19 108.09,96.45 106.39,101.7 110.85,98.45 
		115.33,101.7 113.62,96.45 118.09,93.19 112.56,93.19 	"/>
	<path display="inline" fill="#FFFFFF" d="M6.37,115.04l-1.71-5.26l4.48-3.25H3.61l-0.51-1.58c-0.38,2.32-0.7,4.66-0.94,7.02
		L6.37,115.04z"/>
	<polygon display="inline" fill="#FFFFFF" points="34.74,106.54 33.03,101.28 31.32,106.54 25.8,106.54 30.27,109.78 28.56,115.04 
		33.03,111.79 37.5,115.04 35.8,109.78 40.27,106.54 	"/>
	<polygon display="inline" fill="#FFFFFF" points="65.87,106.54 64.16,101.28 62.45,106.54 56.92,106.54 61.4,109.78 59.69,115.04 
		64.16,111.79 68.64,115.04 66.92,109.78 71.4,106.54 	"/>
	<polygon display="inline" fill="#FFFFFF" points="97,106.54 95.29,101.28 93.58,106.54 88.06,106.54 92.53,109.78 90.82,115.04 
		95.29,111.79 99.76,115.04 98.06,109.78 102.53,106.54 	"/>
	<polygon display="inline" fill="#FFFFFF" points="19.17,119.88 17.46,114.62 15.76,119.88 10.23,119.88 14.7,123.13 13,128.39 
		17.46,125.14 21.94,128.39 20.23,123.13 24.7,119.88 	"/>
	<polygon display="inline" fill="#FFFFFF" points="50.3,119.88 48.59,114.62 46.89,119.88 41.36,119.88 45.83,123.13 44.12,128.39 
		48.59,125.14 53.07,128.39 51.36,123.13 55.83,119.88 	"/>
	<polygon display="inline" fill="#FFFFFF" points="81.44,119.88 79.73,114.62 78.02,119.88 72.49,119.88 76.96,123.13 75.25,128.39 
		79.73,125.14 84.2,128.39 82.49,123.13 86.96,119.88 	"/>
	<polygon display="inline" fill="#FFFFFF" points="112.56,119.88 110.85,114.62 109.15,119.88 103.62,119.88 108.09,123.13 
		106.39,128.39 110.85,125.14 115.33,128.39 113.62,123.13 118.09,119.88 	"/>
</g>
<g>
	<path fill="#C61621" d="M17.99,63.25h214.02c-21.3-36.84-61.08-61.65-106.67-61.78h-0.68C79.07,1.59,39.29,26.41,17.99,63.25z"/>
	<path fill="#C61621" d="M124.69,248.53h0.62c45.6-0.11,85.39-24.93,106.7-61.77H17.99C39.3,223.6,79.09,248.42,124.69,248.53z"/>
	<path fill="#FDC30B" d="M1.47,125c0,22.5,6.02,43.59,16.53,61.76h214.01c10.51-18.17,16.53-39.26,16.53-61.76
		c0-22.5-6.02-43.59-16.52-61.75H17.99C7.48,81.42,1.47,102.5,1.47,125z"/>
</g>
<g display="none">
	<path display="inline" fill="#FFFFFF" d="M105.82,2.95c-5.02,0.78-9.94,1.86-14.74,3.23v69.83L35.54,39.81
		c-5.23,5.49-9.95,11.46-14.1,17.83L60.8,83.29H32.05L13.7,71.33c-1.23,2.54-2.37,5.13-3.42,7.77l6.43,4.19H8.69
		C6.64,89,5.01,94.9,3.81,100.95h102.01V2.95z"/>
	<path display="inline" fill="#FFFFFF" d="M3.81,149.05c1.2,6.06,2.83,11.96,4.88,17.67h10.19l-8.15,5.31
		c2.99,7.24,6.64,14.14,10.88,20.62l39.79-25.94h28.74l-59.1,38.52c1.71,2,3.49,3.95,5.33,5.84l54.69-35.65v68.4
		c4.8,1.37,9.72,2.45,14.74,3.23v-98H3.81z"/>
	<path display="inline" fill="#FFFFFF" d="M232.09,83.29l7.38-4.81c-2.95-7.25-6.57-14.16-10.78-20.65l-39.06,25.46h-28.74
		l58.42-38.08c-1.71-2.02-3.48-3.98-5.31-5.89l-55.07,35.9V6.18c-4.8-1.37-9.72-2.45-14.74-3.23v98h102.01
		c-1.2-6.06-2.83-11.96-4.88-17.66H232.09z"/>
	<path display="inline" fill="#FFFFFF" d="M144.18,247.05c5.02-0.78,9.94-1.86,14.74-3.23V176.2l54.22,35.34
		c5.56-5.67,10.58-11.87,14.98-18.52l-40.38-26.32h28.75l19.46,12.68c1.09-2.21,2.11-4.46,3.07-6.74l-9.1-5.93h11.39
		c2.05-5.71,3.69-11.61,4.88-17.67H144.18V247.05z"/>
	<path display="inline" fill="#253368" d="M8.69,166.72c0.64,1.79,1.33,3.56,2.05,5.31l8.15-5.31H8.69z"/>
	<path display="inline" fill="#253368" d="M10.28,79.1c-0.55,1.39-1.08,2.78-1.59,4.19h8.02L10.28,79.1z"/>
	<path display="inline" fill="#253368" d="M213.99,39.33c-14.91-15.48-33.82-27.09-55.07-33.15v69.04L213.99,39.33z"/>
	<path display="inline" fill="#253368" d="M91.08,6.18c-21.47,6.12-40.56,17.9-55.54,33.63l55.54,36.21V6.18z"/>
	<path display="inline" fill="#253368" d="M36.39,211.06c14.85,15.29,33.62,26.75,54.69,32.75v-68.4L36.39,211.06z"/>
	<path display="inline" fill="#253368" d="M241.31,83.29c-0.58-1.62-1.2-3.22-1.84-4.81l-7.38,4.81H241.31z"/>
	<path display="inline" fill="#253368" d="M158.92,243.82c20.85-5.94,39.45-17.23,54.22-32.28l-54.22-35.34V243.82z"/>
	<path display="inline" fill="#253368" d="M239.01,172.64c0.82-1.95,1.58-3.93,2.3-5.93h-11.39L239.01,172.64z"/>
	<path display="inline" fill="#C21720" d="M60.8,83.29L21.44,57.64c-2.86,4.38-5.45,8.95-7.74,13.69l18.35,11.96H60.8z"/>
	<path display="inline" fill="#C21720" d="M189.63,83.29l39.06-25.46c-2.86-4.41-6-8.62-9.38-12.62l-58.42,38.08H189.63z"/>
	<path display="inline" fill="#C21720" d="M61.42,166.71l-39.79,25.94c2.88,4.4,6.04,8.6,9.44,12.58l59.1-38.52H61.42z"/>
	<path display="inline" fill="#C21720" d="M187.74,166.71l40.38,26.32c2.88-4.36,5.5-8.91,7.82-13.64l-19.46-12.68H187.74z"/>
	<path display="inline" fill="#C21720" d="M144.18,2.95c-6.14-0.96-12.43-1.46-18.84-1.48h-0.68c-6.4,0.02-12.69,0.52-18.83,1.48v98
		H3.81c-1.53,7.78-2.35,15.82-2.35,24.05s0.81,16.27,2.35,24.05h102.01v98c6.14,0.96,12.43,1.46,18.83,1.48h0.69
		c6.4-0.02,12.69-0.52,18.83-1.48v-98h102.01c1.53-7.78,2.35-15.82,2.35-24.05s-0.81-16.27-2.35-24.05H144.18V2.95z"/>
</g>
<g display="none">
	<path display="inline" fill="#75AADB" d="M125,248.53c52.23,0,96.9-32.42,114.96-78.23H10.04C28.1,216.11,72.77,248.53,125,248.53z
		"/>
	<path display="inline" fill="#75AADB" d="M125,1.47c-52.24,0-96.9,32.42-114.97,78.24h229.94C221.9,33.89,177.24,1.47,125,1.47z"/>
	<path display="inline" fill="#FFFFFF" d="M1.47,125c0,15.99,3.04,31.27,8.57,45.3h229.93c5.53-14.03,8.57-29.31,8.57-45.3
		c0-15.99-3.04-31.27-8.57-45.29H10.03C4.5,93.73,1.47,109.01,1.47,125z M99.62,121.22c-2.68-1.61-4.57-1.62-6.4-1.62
		c-0.77-0.01-1.49-0.01-2.24-0.13c-2-0.33-3.25-1.8-3.62-2.54c-0.15-0.31-0.16-0.63-0.01-0.87c0.14-0.22,0.37-0.36,0.63-0.36
		c0.26,0,0.5,0.13,0.66,0.35c0.25,0.33,1.08,0.99,2.43,1.1c0.4,0.03,1,0.01,1.65-0.01c0.45-0.02,0.97-0.04,1.51-0.04
		c1.52,0,3.81,0.14,6.05,1.4c1.4,0.77,4.46,1.13,8.14,1.47l-18.37-8.49c-0.41-0.2-0.62-0.59-0.52-0.99c0.09-0.4,0.45-0.67,0.86-0.67
		c0.11,0,0.21,0.01,0.31,0.05l19.66,7.23c-3.25-1.89-6.14-3.68-7.37-5.32c-1.86-2.51-3.6-3.23-5.29-3.95
		c-0.7-0.29-1.38-0.57-2.02-0.97c-1.72-1.07-2.3-2.9-2.37-3.73c-0.03-0.36,0.11-0.59,0.22-0.72c0.14-0.15,0.33-0.23,0.54-0.23
		c0.37,0,0.68,0.25,0.77,0.63c0.1,0.4,0.62,1.32,1.82,1.95c0.4,0.2,0.92,0.39,1.53,0.62c1.9,0.71,4.51,1.68,6.46,4.15
		c0.98,1.25,3.68,2.75,6.95,4.47L97.87,99.15c-0.26-0.3-0.33-0.66-0.18-0.97c0.14-0.31,0.45-0.51,0.78-0.51
		c0.23,0,0.44,0.08,0.62,0.23l15.39,14.2c-2.27-2.99-4.27-5.74-4.76-7.72c-0.76-3.02-2.09-4.37-3.38-5.67
		c-0.54-0.54-1.05-1.06-1.49-1.68c-1.19-1.65-1.02-3.57-0.77-4.34c0.16-0.48,0.51-0.66,0.79-0.66c0.22,0,0.42,0.1,0.56,0.27
		c0.16,0.18,0.23,0.42,0.19,0.67c-0.06,0.41,0.06,1.46,0.94,2.49c0.29,0.35,0.69,0.72,1.17,1.16c1.49,1.39,3.53,3.27,4.38,6.31
		c0.44,1.53,2.35,3.95,4.71,6.79l-6.99-18.99c-0.11-0.32-0.08-0.62,0.1-0.86c0.16-0.22,0.42-0.35,0.69-0.35
		c0.34,0,0.65,0.2,0.81,0.52l8.78,19.02c-0.96-3.63-1.74-6.94-1.44-8.96c0.46-3.08-0.26-4.84-0.95-6.53
		c-0.28-0.71-0.56-1.38-0.74-2.12c-0.46-1.98,0.43-3.68,0.96-4.31c0.2-0.23,0.44-0.36,0.69-0.36c0.26,0,0.52,0.14,0.64,0.37
		c0.15,0.25,0.14,0.56-0.02,0.83c-0.21,0.36-0.5,1.38-0.09,2.66c0.14,0.42,0.37,0.93,0.64,1.52c0.85,1.84,2.01,4.37,1.64,7.51
		c-0.18,1.58,0.66,4.55,1.75,8.08l0.82-20.22c0.04-0.6,0.47-0.88,0.85-0.88c0.41,0,0.85,0.3,0.89,0.87l0.84,20.93
		c0.5-3.72,1.04-7.08,2.09-8.83c1.6-2.68,1.61-4.58,1.62-6.4c0-0.76,0.01-1.49,0.13-2.24c0.34-2,1.81-3.24,2.54-3.62
		c0.16-0.09,0.32-0.12,0.48-0.12c0.33,0,0.61,0.19,0.72,0.51c0.11,0.32-0.01,0.68-0.31,0.9c-0.33,0.25-0.99,1.08-1.09,2.42
		c-0.04,0.44-0.02,1.01,0.01,1.65c0.07,2.03,0.18,4.81-1.36,7.56c-0.78,1.39-1.14,4.46-1.48,8.14l8.49-18.37
		c0.17-0.35,0.46-0.55,0.8-0.55c0.27,0,0.53,0.14,0.7,0.37c0.17,0.23,0.21,0.54,0.11,0.84l-7.24,19.66
		c1.89-3.25,3.68-6.14,5.32-7.36c2.51-1.86,3.24-3.6,3.95-5.29c0.29-0.71,0.58-1.37,0.97-2.02c1.07-1.73,2.9-2.3,3.73-2.37
		c0.6-0.05,0.9,0.31,0.94,0.67c0.06,0.39-0.2,0.75-0.62,0.86c-0.41,0.1-1.34,0.62-1.95,1.82c-0.2,0.39-0.4,0.92-0.62,1.53
		c-0.7,1.9-1.67,4.51-4.15,6.46c-1.24,0.99-2.75,3.69-4.47,6.96l14.87-13.72c0.2-0.18,0.41-0.26,0.64-0.26c0.33,0,0.63,0.2,0.77,0.5
		c0.15,0.32,0.09,0.69-0.16,0.98l-14.21,15.39c2.98-2.27,5.75-4.26,7.72-4.77c3.03-0.75,4.37-2.08,5.68-3.38
		c0.54-0.53,1.06-1.04,1.67-1.48c1.09-0.79,2.25-0.96,3.02-0.96c0.7,0,1.17,0.14,1.34,0.19c0.54,0.18,0.69,0.59,0.64,0.9
		c-0.06,0.37-0.39,0.64-0.8,0.64c-0.04,0-0.09,0-0.13-0.01c-0.06,0-0.13-0.01-0.2-0.01c-0.27,0-1.25,0.07-2.29,0.94
		c-0.34,0.29-0.72,0.7-1.16,1.17c-1.38,1.48-3.27,3.52-6.3,4.38c-1.54,0.43-3.97,2.35-6.8,4.71l18.99-6.99
		c0.12-0.04,0.24-0.06,0.36-0.06c0.4,0,0.73,0.26,0.82,0.64c0.09,0.4-0.1,0.82-0.51,1.03l-19.01,8.78c3.1-0.82,5.96-1.51,7.98-1.51
		c0.35,0,0.68,0.02,0.98,0.06c0.63,0.09,1.26,0.14,1.83,0.14c2.02,0,3.38-0.56,4.7-1.09c0.72-0.29,1.38-0.56,2.12-0.74
		c0.36-0.08,0.73-0.13,1.12-0.13c1.51,0,2.72,0.69,3.19,1.1c0.31,0.27,0.42,0.61,0.31,0.94c-0.11,0.29-0.4,0.49-0.72,0.49
		c-0.15,0-0.3-0.04-0.45-0.13c-0.23-0.14-0.73-0.29-1.37-0.29c-0.42,0-0.85,0.07-1.29,0.21c-0.42,0.14-0.93,0.37-1.52,0.64
		c-1.57,0.72-3.72,1.7-6.31,1.7c-0.4,0-0.8-0.02-1.19-0.07c-0.14-0.02-0.3-0.02-0.47-0.02c-1.68,0-4.4,0.77-7.61,1.77l20.22,0.82
		c0.6,0.03,0.87,0.46,0.88,0.85c0,0.4-0.29,0.84-0.87,0.89l-20.93,0.83c3.73,0.51,7.08,1.05,8.84,2.1c2.68,1.6,4.57,1.61,6.4,1.62
		c0.77,0,1.49,0.01,2.24,0.13c2,0.33,3.24,1.81,3.61,2.54c0.16,0.31,0.16,0.63,0.01,0.87c-0.13,0.22-0.37,0.36-0.63,0.36
		c-0.26,0-0.5-0.12-0.67-0.35c-0.24-0.34-1.08-0.99-2.42-1.1c-0.4-0.04-0.99-0.01-1.64,0c-0.46,0.02-0.97,0.04-1.52,0.04
		c-1.52,0-3.81-0.14-6.05-1.39c-1.39-0.78-4.46-1.14-8.14-1.49l18.38,8.49c0.41,0.21,0.61,0.6,0.52,0.99
		c-0.08,0.39-0.45,0.67-0.86,0.67c-0.1,0-0.21-0.01-0.32-0.05l-19.65-7.23c3.25,1.89,6.13,3.68,7.36,5.32
		c1.86,2.51,3.6,3.24,5.29,3.95c0.71,0.29,1.37,0.57,2.02,0.98c1.73,1.07,2.3,2.9,2.37,3.73c0.03,0.36-0.1,0.59-0.22,0.71
		c-0.14,0.16-0.33,0.24-0.54,0.24c-0.37,0-0.67-0.25-0.77-0.63c-0.1-0.4-0.62-1.32-1.82-1.94c-0.4-0.21-0.91-0.4-1.52-0.62
		c-1.9-0.7-4.51-1.68-6.46-4.15c-0.99-1.25-3.69-2.75-6.96-4.48l13.72,14.87c0.26,0.3,0.33,0.66,0.19,0.97
		c-0.14,0.31-0.45,0.51-0.8,0.51c-0.21,0-0.43-0.07-0.62-0.23L135.5,137.9c2.28,2.98,4.27,5.74,4.77,7.73
		c0.77,3.02,2.1,4.37,3.39,5.67c0.53,0.54,1.04,1.06,1.49,1.68c1.19,1.65,1.02,3.57,0.76,4.35c-0.15,0.48-0.51,0.65-0.78,0.65
		c-0.22,0-0.42-0.1-0.57-0.26c-0.16-0.18-0.23-0.42-0.18-0.67c0.06-0.41-0.06-1.47-0.93-2.5c-0.29-0.34-0.7-0.72-1.17-1.15
		c-1.49-1.39-3.52-3.28-4.39-6.31c-0.43-1.53-2.35-3.95-4.71-6.79l6.99,18.99c0.1,0.32,0.08,0.61-0.1,0.85
		c-0.16,0.22-0.41,0.35-0.69,0.35c-0.34,0-0.65-0.2-0.81-0.53l-8.78-19.02c0.94,3.63,1.73,6.94,1.44,8.96
		c-0.46,3.08,0.26,4.85,0.95,6.54c0.29,0.71,0.57,1.38,0.74,2.12c0.46,1.98-0.43,3.69-0.97,4.31c-0.19,0.23-0.44,0.35-0.69,0.35
		c-0.27,0-0.51-0.14-0.64-0.37c-0.14-0.25-0.13-0.56,0.03-0.83c0.21-0.36,0.49-1.37,0.08-2.66c-0.13-0.42-0.36-0.93-0.63-1.52
		c-0.84-1.84-2-4.37-1.64-7.51c0.19-1.58-0.66-4.55-1.75-8.08l-0.8,20.22c-0.04,0.6-0.48,0.87-0.86,0.87c-0.4,0-0.84-0.29-0.89-0.86
		l-0.83-20.93c-0.51,3.72-1.05,7.08-2.1,8.83c-1.6,2.68-1.61,4.58-1.62,6.4c-0.01,0.76-0.01,1.49-0.13,2.23
		c-0.33,2.01-1.8,3.25-2.53,3.62c-0.17,0.08-0.32,0.13-0.47,0.13c-0.34,0-0.62-0.2-0.72-0.51c-0.11-0.32,0.02-0.68,0.31-0.9
		c0.33-0.25,0.99-1.08,1.11-2.43c0.03-0.44,0.01-1-0.01-1.64c-0.08-2.03-0.17-4.81,1.35-7.56c0.79-1.39,1.14-4.46,1.49-8.14
		l-8.49,18.37c-0.17,0.34-0.47,0.54-0.8,0.54c-0.27,0-0.53-0.13-0.7-0.36c-0.17-0.23-0.21-0.54-0.11-0.84l7.23-19.65
		c-1.88,3.24-3.67,6.14-5.32,7.36c-2.51,1.86-3.24,3.6-3.94,5.29c-0.3,0.71-0.58,1.37-0.98,2.02c-1.07,1.73-2.91,2.3-3.73,2.37
		c-0.03,0-0.06,0-0.1,0c-0.53,0-0.8-0.33-0.85-0.67c-0.05-0.39,0.21-0.76,0.63-0.86c0.4-0.1,1.33-0.62,1.95-1.82
		c0.2-0.4,0.4-0.92,0.62-1.53c0.71-1.9,1.67-4.51,4.15-6.47c1.26-0.98,2.75-3.68,4.47-6.95l-14.87,13.72
		c-0.2,0.17-0.41,0.26-0.64,0.26c-0.32,0-0.62-0.19-0.76-0.5c-0.15-0.32-0.09-0.69,0.15-0.98l14.21-15.39
		c-2.99,2.27-5.75,4.26-7.74,4.76c-3.02,0.76-4.37,2.09-5.67,3.38c-0.54,0.54-1.06,1.05-1.67,1.49c-1.09,0.79-2.24,0.95-3.02,0.95
		c-0.7,0-1.16-0.13-1.33-0.18c-0.55-0.18-0.68-0.6-0.64-0.9c0.06-0.37,0.4-0.65,0.79-0.65c0.05,0,0.09,0.01,0.13,0.01
		c0.06,0.01,0.14,0.01,0.21,0.01c0.27,0,1.25-0.07,2.29-0.94c0.34-0.29,0.71-0.7,1.15-1.17c1.38-1.48,3.28-3.52,6.31-4.38
		c1.52-0.43,3.95-2.36,6.8-4.71l-19,6.99c-0.12,0.04-0.23,0.06-0.35,0.06c-0.4,0-0.72-0.26-0.82-0.65c-0.1-0.41,0.1-0.82,0.49-1.02
		l19.02-8.78c-3.11,0.81-5.97,1.51-7.98,1.51c-0.36,0-0.69-0.03-0.99-0.07c-0.63-0.09-1.26-0.14-1.83-0.14
		c-2.03,0-3.39,0.56-4.7,1.1c-0.72,0.29-1.39,0.56-2.13,0.73c-0.37,0.09-0.74,0.13-1.12,0.13c-1.51,0-2.71-0.69-3.18-1.09
		c-0.31-0.27-0.43-0.62-0.31-0.94c0.1-0.29,0.39-0.49,0.72-0.49c0.15,0,0.3,0.05,0.44,0.12c0.25,0.15,0.73,0.3,1.37,0.3
		c0.42,0,0.86-0.07,1.29-0.21c0.43-0.13,0.93-0.37,1.52-0.64c1.57-0.73,3.72-1.71,6.32-1.71c0.39,0,0.8,0.02,1.19,0.07
		c0.14,0.02,0.3,0.02,0.47,0.02c1.67,0,4.4-0.78,7.61-1.78l-20.22-0.81c-0.6-0.04-0.87-0.47-0.87-0.85
		c-0.01-0.41,0.29-0.85,0.86-0.89l20.93-0.84C104.73,122.82,101.37,122.27,99.62,121.22z"/>
	<path display="inline" fill="#853612" d="M86.66,125.05c0,0.38,0.27,0.81,0.87,0.85l20.22,0.81c-3.22,0.99-5.94,1.78-7.61,1.78
		c-0.17,0-0.33,0-0.47-0.02c-0.39-0.05-0.8-0.07-1.19-0.07c-2.6,0-4.75,0.99-6.32,1.71c-0.59,0.27-1.09,0.5-1.52,0.64
		c-0.43,0.14-0.87,0.21-1.29,0.21c-0.64,0-1.12-0.15-1.37-0.3c-0.14-0.07-0.29-0.12-0.44-0.12c-0.33,0-0.62,0.2-0.72,0.49
		c-0.12,0.32,0,0.67,0.31,0.94c0.47,0.4,1.68,1.09,3.18,1.09c0.38,0,0.76-0.04,1.12-0.13c0.74-0.17,1.41-0.44,2.13-0.73
		c1.31-0.54,2.67-1.1,4.7-1.1c0.57,0,1.2,0.05,1.83,0.14c0.3,0.04,0.63,0.07,0.99,0.07c2.01,0,4.87-0.69,7.98-1.51l-19.02,8.78
		c-0.39,0.2-0.6,0.61-0.49,1.02c0.09,0.38,0.42,0.65,0.82,0.65c0.12,0,0.23-0.02,0.35-0.06l19-6.99c-2.84,2.36-5.27,4.28-6.8,4.71
		c-3.03,0.86-4.93,2.9-6.31,4.38c-0.44,0.48-0.82,0.89-1.15,1.17c-1.04,0.87-2.02,0.94-2.29,0.94c-0.08,0-0.15,0-0.21-0.01
		c-0.04,0-0.08-0.01-0.13-0.01c-0.39,0-0.73,0.27-0.79,0.65c-0.04,0.3,0.09,0.72,0.64,0.9c0.17,0.06,0.63,0.18,1.33,0.18
		c0.78,0,1.93-0.16,3.02-0.95c0.61-0.44,1.13-0.95,1.67-1.49c1.3-1.29,2.65-2.62,5.67-3.38c1.99-0.5,4.75-2.49,7.74-4.76
		l-14.21,15.39c-0.24,0.29-0.31,0.66-0.15,0.98c0.14,0.31,0.44,0.5,0.76,0.5c0.23,0,0.44-0.08,0.64-0.26l14.87-13.72
		c-1.72,3.27-3.22,5.96-4.47,6.95c-2.47,1.96-3.44,4.57-4.15,6.47c-0.23,0.6-0.42,1.12-0.62,1.53c-0.62,1.2-1.54,1.71-1.95,1.82
		c-0.41,0.1-0.67,0.47-0.63,0.86c0.04,0.34,0.32,0.67,0.85,0.67c0.03,0,0.07,0,0.1,0c0.83-0.07,2.66-0.64,3.73-2.37
		c0.4-0.65,0.68-1.31,0.98-2.02c0.7-1.69,1.43-3.43,3.94-5.29c1.64-1.22,3.43-4.12,5.32-7.36l-7.23,19.65
		c-0.1,0.3-0.06,0.61,0.11,0.84c0.17,0.23,0.43,0.36,0.7,0.36c0.33,0,0.63-0.2,0.8-0.54l8.49-18.37c-0.35,3.68-0.7,6.75-1.49,8.14
		c-1.52,2.75-1.43,5.53-1.35,7.56c0.03,0.64,0.05,1.2,0.01,1.64c-0.11,1.35-0.77,2.18-1.11,2.43c-0.29,0.23-0.41,0.58-0.31,0.9
		c0.1,0.31,0.38,0.51,0.72,0.51c0.15,0,0.31-0.05,0.47-0.13c0.73-0.37,2.2-1.61,2.53-3.62c0.12-0.74,0.12-1.47,0.13-2.23
		c0-1.83,0.02-3.72,1.62-6.4c1.05-1.76,1.59-5.12,2.1-8.83l0.83,20.93c0.05,0.57,0.49,0.86,0.89,0.86c0.38,0,0.82-0.27,0.86-0.87
		l0.8-20.22c1.1,3.53,1.94,6.5,1.75,8.08c-0.37,3.14,0.8,5.66,1.64,7.51c0.27,0.59,0.51,1.09,0.63,1.52
		c0.41,1.29,0.13,2.3-0.08,2.66c-0.16,0.27-0.17,0.58-0.03,0.83c0.13,0.23,0.37,0.37,0.64,0.37c0.25,0,0.49-0.12,0.69-0.35
		c0.54-0.63,1.43-2.34,0.97-4.31c-0.17-0.74-0.45-1.41-0.74-2.12c-0.69-1.69-1.4-3.46-0.95-6.54c0.29-2.02-0.49-5.33-1.44-8.96
		l8.78,19.02c0.17,0.32,0.47,0.53,0.81,0.53c0.28,0,0.54-0.13,0.69-0.35c0.18-0.24,0.2-0.53,0.1-0.85l-6.99-18.99
		c2.36,2.84,4.28,5.26,4.71,6.79c0.86,3.03,2.9,4.92,4.39,6.31c0.47,0.43,0.89,0.81,1.17,1.15c0.87,1.03,0.99,2.09,0.93,2.5
		c-0.04,0.25,0.02,0.49,0.18,0.67c0.15,0.16,0.35,0.26,0.57,0.26c0.27,0,0.63-0.17,0.78-0.65c0.26-0.78,0.43-2.7-0.76-4.35
		c-0.45-0.62-0.95-1.14-1.49-1.68c-1.29-1.3-2.62-2.65-3.39-5.67c-0.49-1.99-2.49-4.75-4.77-7.73l15.39,14.21
		c0.19,0.16,0.4,0.23,0.62,0.23c0.35,0,0.66-0.2,0.8-0.51c0.14-0.31,0.08-0.67-0.19-0.97l-13.72-14.87
		c3.27,1.72,5.97,3.23,6.96,4.48c1.95,2.47,4.56,3.45,6.46,4.15c0.61,0.22,1.13,0.41,1.52,0.62c1.2,0.62,1.72,1.54,1.82,1.94
		c0.1,0.38,0.4,0.63,0.77,0.63c0.2,0,0.4-0.08,0.54-0.24c0.12-0.12,0.25-0.35,0.22-0.71c-0.07-0.82-0.64-2.66-2.37-3.73
		c-0.65-0.4-1.31-0.69-2.02-0.98c-1.69-0.71-3.43-1.44-5.29-3.95c-1.23-1.64-4.11-3.43-7.36-5.32l19.65,7.23
		c0.11,0.04,0.21,0.05,0.32,0.05c0.42,0,0.78-0.28,0.86-0.67c0.09-0.39-0.11-0.79-0.52-0.99l-18.38-8.49
		c3.68,0.34,6.75,0.7,8.14,1.49c2.24,1.25,4.52,1.39,6.05,1.39c0.54,0,1.06-0.02,1.52-0.04c0.65-0.02,1.24-0.04,1.64,0
		c1.34,0.11,2.18,0.76,2.42,1.1c0.17,0.23,0.41,0.35,0.67,0.35c0.26,0,0.5-0.13,0.63-0.36c0.15-0.24,0.15-0.56-0.01-0.87
		c-0.37-0.73-1.61-2.21-3.61-2.54c-0.75-0.12-1.47-0.13-2.24-0.13c-1.83-0.01-3.72-0.02-6.4-1.62c-1.76-1.05-5.11-1.59-8.84-2.1
		l20.93-0.83c0.58-0.05,0.87-0.49,0.87-0.89c-0.01-0.39-0.28-0.82-0.88-0.85l-20.22-0.82c3.21-1,5.94-1.77,7.61-1.77
		c0.17,0,0.33,0,0.47,0.02c0.39,0.05,0.79,0.07,1.19,0.07c2.59,0,4.74-0.98,6.31-1.7c0.59-0.27,1.1-0.5,1.52-0.64
		c0.44-0.14,0.87-0.21,1.29-0.21c0.64,0,1.13,0.15,1.37,0.29c0.15,0.09,0.3,0.13,0.45,0.13c0.32,0,0.61-0.2,0.72-0.49
		c0.11-0.33,0-0.67-0.31-0.94c-0.48-0.41-1.69-1.1-3.19-1.1c-0.39,0-0.76,0.04-1.12,0.13c-0.74,0.18-1.41,0.45-2.12,0.74
		c-1.32,0.54-2.68,1.09-4.7,1.09c-0.58,0-1.2-0.05-1.83-0.14c-0.3-0.05-0.63-0.06-0.98-0.06c-2.02,0-4.88,0.69-7.98,1.51l19.01-8.78
		c0.4-0.21,0.6-0.62,0.51-1.03c-0.09-0.38-0.43-0.64-0.82-0.64c-0.12,0-0.23,0.02-0.36,0.06l-18.99,6.99
		c2.83-2.36,5.26-4.28,6.8-4.71c3.03-0.86,4.92-2.9,6.3-4.38c0.44-0.48,0.82-0.88,1.16-1.17c1.03-0.87,2.01-0.94,2.29-0.94
		c0.07,0,0.14,0,0.2,0.01c0.05,0.01,0.09,0.01,0.13,0.01c0.4,0,0.73-0.27,0.8-0.64c0.05-0.31-0.09-0.72-0.64-0.9
		c-0.17-0.05-0.63-0.19-1.34-0.19c-0.77,0-1.93,0.17-3.02,0.96c-0.62,0.44-1.13,0.95-1.67,1.48c-1.3,1.3-2.64,2.63-5.68,3.38
		c-1.98,0.5-4.75,2.5-7.72,4.77L152.1,99.1c0.25-0.29,0.31-0.67,0.16-0.98c-0.14-0.3-0.44-0.5-0.77-0.5c-0.23,0-0.44,0.08-0.64,0.26
		l-14.87,13.72c1.72-3.27,3.23-5.97,4.47-6.96c2.48-1.95,3.45-4.56,4.15-6.46c0.23-0.61,0.42-1.13,0.62-1.53
		c0.62-1.2,1.54-1.71,1.95-1.82c0.41-0.11,0.67-0.47,0.62-0.86c-0.04-0.36-0.34-0.71-0.94-0.67c-0.83,0.07-2.66,0.64-3.73,2.37
		c-0.39,0.64-0.68,1.31-0.97,2.02c-0.71,1.69-1.44,3.44-3.95,5.29c-1.64,1.22-3.43,4.12-5.32,7.36l7.24-19.66
		c0.1-0.3,0.06-0.61-0.11-0.84c-0.17-0.23-0.43-0.37-0.7-0.37c-0.34,0-0.63,0.21-0.8,0.55l-8.49,18.37c0.34-3.68,0.7-6.75,1.48-8.14
		c1.54-2.75,1.43-5.53,1.36-7.56c-0.03-0.64-0.05-1.2-0.01-1.65c0.1-1.34,0.77-2.17,1.09-2.42c0.3-0.22,0.42-0.58,0.31-0.9
		c-0.11-0.32-0.39-0.51-0.72-0.51c-0.16,0-0.32,0.03-0.48,0.12c-0.73,0.37-2.2,1.61-2.54,3.62c-0.12,0.75-0.12,1.47-0.13,2.24
		c-0.01,1.83-0.02,3.72-1.62,6.4c-1.05,1.76-1.59,5.12-2.09,8.83l-0.84-20.93c-0.04-0.57-0.48-0.87-0.89-0.87
		c-0.38,0-0.81,0.28-0.85,0.88l-0.82,20.22c-1.09-3.53-1.93-6.5-1.75-8.08c0.37-3.14-0.79-5.67-1.64-7.51
		c-0.27-0.59-0.5-1.1-0.64-1.52c-0.41-1.28-0.12-2.3,0.09-2.66c0.16-0.27,0.17-0.58,0.02-0.83c-0.12-0.23-0.37-0.37-0.64-0.37
		c-0.25,0-0.49,0.12-0.69,0.36c-0.53,0.63-1.42,2.33-0.96,4.31c0.18,0.74,0.46,1.4,0.74,2.12c0.7,1.7,1.41,3.45,0.95,6.53
		c-0.3,2.03,0.49,5.34,1.44,8.96l-8.78-19.02c-0.17-0.33-0.47-0.52-0.81-0.52c-0.27,0-0.54,0.13-0.69,0.35
		c-0.17,0.24-0.2,0.54-0.1,0.86l6.99,18.99c-2.36-2.84-4.27-5.26-4.71-6.79c-0.85-3.04-2.89-4.92-4.38-6.31
		c-0.48-0.44-0.88-0.81-1.17-1.16c-0.87-1.03-0.99-2.08-0.94-2.49c0.04-0.25-0.03-0.49-0.19-0.67c-0.14-0.16-0.34-0.27-0.56-0.27
		c-0.28,0-0.63,0.18-0.79,0.66c-0.25,0.78-0.42,2.7,0.77,4.34c0.44,0.62,0.94,1.13,1.49,1.68c1.29,1.3,2.62,2.65,3.38,5.67
		c0.49,1.99,2.49,4.74,4.76,7.72L99.09,97.9c-0.18-0.16-0.4-0.23-0.62-0.23c-0.34,0-0.64,0.2-0.78,0.51
		c-0.15,0.31-0.08,0.67,0.18,0.97l13.73,14.87c-3.27-1.72-5.97-3.23-6.95-4.47c-1.96-2.47-4.56-3.44-6.46-4.15
		c-0.61-0.22-1.13-0.42-1.53-0.62c-1.2-0.62-1.71-1.54-1.82-1.95c-0.09-0.38-0.4-0.63-0.77-0.63c-0.2,0-0.39,0.08-0.54,0.23
		c-0.11,0.13-0.25,0.36-0.22,0.72c0.07,0.83,0.65,2.66,2.37,3.73c0.64,0.4,1.32,0.68,2.02,0.97c1.69,0.72,3.43,1.44,5.29,3.95
		c1.23,1.64,4.12,3.43,7.37,5.32l-19.66-7.23c-0.1-0.04-0.2-0.05-0.31-0.05c-0.41,0-0.77,0.27-0.86,0.67
		c-0.09,0.4,0.12,0.79,0.52,0.99l18.37,8.49c-3.68-0.34-6.74-0.7-8.14-1.47c-2.24-1.26-4.52-1.4-6.05-1.4
		c-0.54,0-1.06,0.02-1.51,0.04c-0.66,0.02-1.26,0.04-1.65,0.01c-1.34-0.11-2.17-0.78-2.43-1.1c-0.17-0.22-0.4-0.35-0.66-0.35
		c-0.26,0-0.49,0.13-0.63,0.36c-0.15,0.24-0.14,0.56,0.01,0.87c0.37,0.73,1.62,2.21,3.62,2.54c0.74,0.12,1.47,0.12,2.24,0.13
		c1.83,0,3.72,0.01,6.4,1.62c1.75,1.05,5.11,1.59,8.83,2.09l-20.93,0.84C86.95,124.2,86.65,124.64,86.66,125.05z M101.09,130.68
		c-0.33,0-0.63-0.01-0.9-0.06c-0.66-0.1-1.32-0.15-1.92-0.15c-2.14,0-3.62,0.61-4.93,1.14c-0.69,0.28-1.34,0.54-2.02,0.71
		c-0.33,0.08-0.66,0.12-1,0.12c-1.33,0-2.4-0.62-2.79-0.96c-0.11-0.09-0.17-0.19-0.14-0.26c0.02-0.06,0.08-0.09,0.15-0.09
		c0.04,0,0.09,0.01,0.13,0.04c0.41,0.24,1.04,0.39,1.68,0.39c0.49,0,0.98-0.09,1.48-0.23c0.46-0.15,0.98-0.39,1.58-0.67
		c1.52-0.7,3.6-1.66,6.07-1.66c0.37,0,0.75,0.03,1.11,0.07c0.17,0.02,0.35,0.03,0.54,0.03c2.02,0,5.4-1.05,9.32-2.27
		c0.03-0.01,0.06-0.02,0.09-0.03h0.11c0.02,0.2,0.04,0.4,0.08,0.6c-0.03,0.01-0.07,0.02-0.1,0.03c-4.5,1.4-8.05,2.52-10.12,2.27
		c-2.56-0.3-4.74,0.58-6.4,1.34c1.75-0.72,3.75-1.53,7.15-1.03c2,0.3,5.68-0.66,9.64-1.72c0.05,0.21,0.09,0.41,0.15,0.62
		C106.56,129.83,103.27,130.68,101.09,130.68z M90.53,139.6c-0.05,0.01-0.11,0.02-0.16,0.02c-0.17,0-0.22-0.14-0.23-0.18
		c-0.01-0.06-0.04-0.23,0.17-0.34l20.04-9.26c0.07,0.2,0.13,0.41,0.2,0.6l-15.44,6.96l15.83-6c0.09,0.18,0.17,0.36,0.26,0.54
		c-0.03,0.03-0.07,0.06-0.11,0.08L90.53,139.6z M104.22,139.69c-3.18,0.8-4.65,2.25-5.95,3.53c-0.53,0.52-1.03,1.02-1.6,1.44
		c-0.95,0.68-1.98,0.83-2.67,0.83c-0.63,0-1.03-0.12-1.14-0.15c-0.16-0.05-0.24-0.14-0.23-0.23c0.01-0.07,0.09-0.14,0.2-0.14
		c0.02,0,0.04,0,0.05,0.01c0.09,0.01,0.19,0.01,0.3,0.01c0.32,0,1.48-0.08,2.67-1.09c0.37-0.32,0.77-0.74,1.21-1.23
		c1.33-1.44,3.16-3.4,6.03-4.21c1.87-0.53,4.82-3,8.24-5.85c0.03-0.02,0.06-0.04,0.08-0.07l0.1-0.04c0.1,0.18,0.2,0.35,0.3,0.53
		c-0.02,0.02-0.05,0.04-0.07,0.06c-3.62,3.02-6.47,5.4-8.47,5.97c-2.47,0.7-4.16,2.35-5.41,3.69c1.35-1.34,2.89-2.85,6.23-3.69
		c1.95-0.49,4.99-2.79,8.23-5.27c0.12,0.18,0.24,0.35,0.37,0.52C109.39,136.84,106.3,139.17,104.22,139.69z M98.74,151.68
		c-0.08,0.07-0.16,0.1-0.23,0.1c-0.09,0-0.18-0.06-0.22-0.15c-0.03-0.06-0.06-0.19,0.06-0.33l14.96-16.2
		c0.14,0.16,0.28,0.32,0.43,0.48l-11.59,12.32l12.32-11.59c0.14,0.14,0.3,0.27,0.44,0.4c-0.02,0.03-0.04,0.07-0.05,0.1L98.74,151.68
		z M111.43,146.52c-2.64,1.96-3.44,3.87-4.14,5.54c-0.29,0.68-0.56,1.33-0.93,1.94c-0.98,1.57-2.7,2.04-3.27,2.08
		c-0.02,0-0.03,0-0.05,0c-0.07,0-0.23-0.02-0.25-0.14c-0.01-0.07,0.04-0.16,0.17-0.21c0.54-0.13,1.62-0.74,2.33-2.12
		c0.23-0.42,0.42-0.97,0.66-1.58c0.68-1.85,1.61-4.36,3.95-6.21c1.52-1.2,3.32-4.61,5.38-8.56c0.02-0.03,0.03-0.06,0.06-0.09
		l0.06-0.06c0.15,0.13,0.32,0.25,0.48,0.37c-0.01,0.02-0.02,0.05-0.03,0.08c-2.18,4.17-3.92,7.47-5.55,8.75
		c-2.02,1.59-2.94,3.76-3.59,5.48c0.73-1.75,1.57-3.73,4.34-5.79c1.62-1.2,3.55-4.49,5.58-8.02c0.18,0.11,0.35,0.23,0.54,0.34
		C115.11,141.92,113.15,145.25,111.43,146.52z M110.95,159.71c-0.05,0.08-0.13,0.2-0.26,0.2c-0.08,0-0.16-0.05-0.21-0.11
		c-0.06-0.07-0.06-0.18-0.04-0.29l7.61-20.68c0.2,0.09,0.38,0.18,0.58,0.27l-5.99,15.81l6.94-15.43c0.2,0.08,0.38,0.14,0.57,0.2
		c0,0.04,0,0.07-0.01,0.11L110.95,159.71z M120.7,150.08c-1.69,2.82-1.7,4.88-1.7,6.71c-0.01,0.74-0.01,1.45-0.13,2.14
		c-0.29,1.84-1.69,2.92-2.21,3.17c-0.08,0.04-0.14,0.06-0.2,0.06c-0.11,0-0.13-0.06-0.15-0.09c-0.01-0.03-0.03-0.13,0.09-0.23
		c0.44-0.33,1.22-1.3,1.34-2.85c0.04-0.49,0.02-1.06,0-1.72c-0.08-1.96-0.18-4.64,1.28-7.25c0.94-1.7,1.29-5.52,1.69-9.97
		c0.01-0.04,0.01-0.07,0.01-0.1l0.04-0.08c0.2,0.06,0.39,0.12,0.59,0.17c0,0.02,0,0.04-0.01,0.07c-0.42,4.69-0.76,8.39-1.77,10.21
		c-1.26,2.26-1.28,4.61-1.22,6.43c0.01-1.9,0.03-4.05,1.8-7.01c1.03-1.72,1.55-5.49,2.08-9.53c0.21,0.05,0.42,0.08,0.63,0.11
		C122.33,144.43,121.8,148.25,120.7,150.08z M125.29,162.44c-0.02,0.27-0.18,0.3-0.26,0.3c-0.11,0-0.27-0.08-0.29-0.29l-0.88-22.01
		c0.21,0.02,0.42,0.03,0.64,0.03l0.51,16.9l0.51-16.89c0.21-0.01,0.41-0.02,0.61-0.03c0.01,0.02,0.02,0.06,0.03,0.09L125.29,162.44z
		 M130.62,149.81c-0.48,3.25,0.31,5.16,0.99,6.85c0.28,0.69,0.54,1.33,0.71,2.02c0.42,1.81-0.46,3.35-0.83,3.79
		c-0.08,0.09-0.16,0.14-0.23,0.14c-0.07,0-0.11-0.05-0.12-0.07c-0.02-0.04-0.05-0.12,0.02-0.23c0.28-0.47,0.62-1.67,0.15-3.15
		c-0.15-0.46-0.38-0.99-0.66-1.59c-0.82-1.78-1.94-4.21-1.59-7.18c0.23-1.93-0.92-5.6-2.25-9.85c-0.01-0.04-0.03-0.07-0.03-0.1
		v-0.07c0.2-0.02,0.41-0.05,0.62-0.08c0,0.02,0.01,0.03,0.02,0.06c1.4,4.5,2.51,8.05,2.27,10.12c-0.3,2.56,0.58,4.74,1.34,6.41
		c-0.72-1.76-1.53-3.76-1.02-7.17c0.29-1.99-0.66-5.65-1.72-9.58c0.21-0.05,0.41-0.09,0.62-0.15
		C129.97,143.99,130.93,147.71,130.62,149.81z M139.6,159.47c0.03,0.08,0.05,0.2-0.02,0.3c-0.03,0.07-0.12,0.1-0.2,0.1
		c-0.06,0-0.19-0.02-0.27-0.18l-9.23-19.99c0.2-0.07,0.4-0.13,0.6-0.21l6.94,15.4l-5.98-15.79c0.19-0.08,0.37-0.17,0.55-0.26
		c0.01,0.02,0.03,0.04,0.05,0.06L139.6,159.47z M139.69,145.77c0.8,3.18,2.26,4.65,3.54,5.95c0.52,0.53,1.01,1.03,1.43,1.6
		c1.09,1.52,0.86,3.27,0.68,3.82c-0.05,0.14-0.12,0.23-0.2,0.23c-0.04,0-0.09-0.02-0.11-0.06c-0.04-0.04-0.06-0.11-0.05-0.19
		c0.08-0.54-0.06-1.77-1.07-2.96c-0.31-0.37-0.73-0.76-1.22-1.21c-1.43-1.34-3.41-3.16-4.22-6.03c-0.53-1.88-3-4.83-5.84-8.24
		c-0.02-0.03-0.05-0.05-0.07-0.08l-0.02-0.05c0.18-0.1,0.36-0.2,0.53-0.31c0.01,0.01,0.02,0.03,0.04,0.04
		c3.02,3.61,5.4,6.47,5.97,8.47c0.7,2.48,2.35,4.17,3.69,5.41c-1.34-1.35-2.85-2.88-3.69-6.23c-0.49-1.94-2.77-4.96-5.24-8.19
		c0.17-0.12,0.34-0.24,0.51-0.37C136.85,140.63,139.17,143.7,139.69,145.77z M151.68,151.26c0.06,0.08,0.14,0.21,0.09,0.33
		c-0.04,0.08-0.14,0.14-0.25,0.14c-0.07,0-0.15-0.02-0.21-0.08l-16.17-14.93c0.17-0.14,0.32-0.28,0.48-0.43l12.29,11.57l-11.57-12.3
		c0.14-0.15,0.27-0.3,0.4-0.45c0.03,0.01,0.05,0.02,0.07,0.03L151.68,151.26z M146.52,138.57c1.97,2.63,3.86,3.44,5.55,4.14
		c0.68,0.28,1.33,0.56,1.93,0.94c1.58,0.97,2.04,2.69,2.09,3.26c0.01,0.12-0.01,0.21-0.06,0.26c-0.03,0.03-0.08,0.04-0.1,0.04
		c-0.07,0-0.15-0.05-0.19-0.18c-0.13-0.52-0.73-1.62-2.13-2.33c-0.42-0.22-0.96-0.42-1.58-0.65c-1.83-0.69-4.35-1.62-6.2-3.96
		c-1.21-1.52-4.62-3.31-8.56-5.37c-0.03-0.02-0.06-0.04-0.09-0.06l-0.04-0.04c0.13-0.16,0.26-0.33,0.38-0.5
		c0.01,0.01,0.03,0.02,0.05,0.03c4.18,2.19,7.46,3.91,8.75,5.55c1.6,2.02,3.77,2.95,5.48,3.58c-1.75-0.73-3.72-1.57-5.78-4.33
		c-1.2-1.62-4.47-3.53-7.99-5.57c0.12-0.17,0.23-0.36,0.33-0.54C141.93,134.91,145.25,136.86,146.52,138.57z M159.7,139.06
		c0.15,0.06,0.23,0.18,0.2,0.3c-0.03,0.11-0.12,0.21-0.28,0.21c-0.03,0-0.08-0.01-0.12-0.01l-20.66-7.61
		c0.09-0.19,0.19-0.38,0.27-0.58l15.8,5.99l-15.4-6.94c0.06-0.19,0.13-0.38,0.2-0.57c0.04,0,0.06,0,0.09,0L159.7,139.06z
		 M150.08,129.3c2.82,1.69,4.88,1.69,6.71,1.7c0.74,0,1.44,0.01,2.14,0.12c1.83,0.3,2.92,1.69,3.17,2.21
		c0.06,0.12,0.08,0.23,0.04,0.29c-0.03,0.04-0.06,0.06-0.12,0.06c-0.07,0-0.13-0.04-0.18-0.11c-0.33-0.44-1.3-1.21-2.86-1.34
		c-0.18-0.02-0.38-0.02-0.63-0.02c-0.33,0-0.71,0.01-1.09,0.03c-0.46,0.01-0.96,0.04-1.5,0.04c-1.58,0-3.66-0.15-5.75-1.32
		c-1.7-0.95-5.53-1.29-9.96-1.69c-0.04-0.01-0.08-0.01-0.11-0.01l-0.06-0.03c0.06-0.2,0.11-0.39,0.16-0.6c0.02,0,0.04,0,0.06,0.01
		c4.69,0.42,8.39,0.76,10.21,1.77c2.25,1.26,4.6,1.28,6.43,1.22c-1.89-0.01-4.05-0.03-7.01-1.8c-1.72-1.03-5.48-1.56-9.52-2.08
		c0.04-0.21,0.08-0.42,0.11-0.63C144.44,127.67,148.25,128.2,150.08,129.3z M162.43,124.71c0.27,0.01,0.3,0.18,0.3,0.25
		c0,0.13-0.09,0.27-0.29,0.29l-22,0.88c0.01-0.21,0.03-0.42,0.04-0.63l16.88-0.51l-16.88-0.52c-0.01-0.21-0.03-0.41-0.04-0.61
		c0.03-0.01,0.06-0.02,0.08-0.02L162.43,124.71z M148.91,119.31c0.33,0,0.63,0.03,0.89,0.07c0.67,0.09,1.32,0.15,1.93,0.15
		c2.14,0,3.62-0.61,4.93-1.14c0.69-0.28,1.34-0.54,2.03-0.71c0.31-0.07,0.64-0.12,0.98-0.12c1.34,0,2.41,0.62,2.8,0.95
		c0.11,0.09,0.16,0.2,0.13,0.27c-0.04,0.1-0.17,0.13-0.29,0.06c-0.41-0.24-1.03-0.39-1.68-0.39c-0.49,0-0.98,0.08-1.48,0.23
		c-0.46,0.15-0.97,0.39-1.58,0.67c-1.52,0.7-3.6,1.66-6.06,1.66c-0.37,0-0.75-0.02-1.12-0.07c-0.16-0.02-0.34-0.03-0.53-0.03
		c-2.03,0-5.4,1.06-9.32,2.27c-0.04,0.01-0.06,0.02-0.1,0.03l-0.07,0c-0.02-0.21-0.05-0.41-0.08-0.61c0.02-0.01,0.04-0.02,0.06-0.02
		c4.5-1.41,8.05-2.51,10.12-2.27c2.57,0.3,4.74-0.58,6.41-1.34c-1.76,0.72-3.75,1.53-7.16,1.03c-1.98-0.3-5.66,0.66-9.6,1.71
		c-0.05-0.21-0.09-0.41-0.15-0.61C143.46,120.17,146.73,119.31,148.91,119.31z M159.46,110.4c0.06-0.01,0.12-0.02,0.16-0.02
		c0.17,0,0.22,0.15,0.23,0.18c0.02,0.06,0.03,0.23-0.17,0.34l-20.01,9.23c-0.07-0.2-0.14-0.4-0.21-0.6l15.41-6.94l-15.81,5.99
		c-0.09-0.18-0.17-0.36-0.26-0.54c0.03-0.02,0.06-0.04,0.09-0.07L159.46,110.4z M145.77,110.31c3.19-0.8,4.65-2.25,5.95-3.53
		c0.53-0.53,1.03-1.02,1.61-1.44c0.94-0.68,1.98-0.83,2.66-0.83c0.63,0,1.04,0.12,1.15,0.15c0.15,0.05,0.25,0.14,0.23,0.23
		c-0.01,0.08-0.1,0.16-0.24,0.14c-0.09-0.01-0.19-0.02-0.29-0.02c-0.33,0-1.48,0.08-2.68,1.09c-0.37,0.31-0.76,0.73-1.21,1.22
		c-1.33,1.43-3.17,3.4-6.03,4.21c-1.87,0.53-4.82,3-8.25,5.84c-0.02,0.02-0.05,0.05-0.08,0.08l-0.07,0.02
		c-0.1-0.18-0.21-0.35-0.31-0.52c0.02-0.02,0.04-0.04,0.06-0.06c3.63-3.02,6.48-5.4,8.48-5.96c2.47-0.7,4.16-2.35,5.4-3.69
		c-1.35,1.34-2.88,2.85-6.22,3.69c-1.96,0.49-4.98,2.79-8.22,5.27c-0.12-0.18-0.24-0.35-0.36-0.52
		C140.62,113.15,143.7,110.83,145.77,110.31z M151.25,98.32c0.09-0.07,0.16-0.1,0.23-0.1c0.09,0,0.18,0.06,0.21,0.15
		c0.03,0.06,0.06,0.19-0.06,0.33l-14.94,16.19c-0.14-0.16-0.29-0.32-0.43-0.48l11.58-12.31l-12.32,11.59
		c-0.14-0.14-0.3-0.27-0.45-0.4c0.02-0.03,0.03-0.07,0.05-0.1L151.25,98.32z M138.57,103.48c2.63-1.96,3.43-3.87,4.15-5.55
		c0.28-0.68,0.55-1.33,0.93-1.93c0.97-1.57,2.69-2.04,3.26-2.08c0.01-0.01,0.03-0.01,0.05-0.01c0.06,0,0.23,0.02,0.24,0.14
		c0.01,0.07-0.04,0.17-0.18,0.21c-0.52,0.14-1.61,0.73-2.33,2.13c-0.22,0.42-0.42,0.96-0.65,1.59c-0.69,1.83-1.62,4.35-3.96,6.2
		c-1.52,1.2-3.3,4.62-5.38,8.56c-0.02,0.03-0.03,0.06-0.05,0.09l-0.07,0.06c-0.15-0.13-0.32-0.25-0.48-0.37
		c0.01-0.02,0.02-0.05,0.03-0.08c2.19-4.17,3.92-7.46,5.55-8.75c2.02-1.59,2.95-3.77,3.58-5.48c-0.73,1.75-1.57,3.73-4.33,5.79
		c-1.62,1.2-3.54,4.49-5.59,8.02c-0.17-0.11-0.35-0.22-0.54-0.33C134.89,108.08,136.85,104.75,138.57,103.48z M139.05,90.3
		c0.04-0.09,0.12-0.2,0.26-0.2c0.07,0,0.16,0.05,0.21,0.11c0.06,0.07,0.07,0.18,0.03,0.29l-7.62,20.7
		c-0.19-0.09-0.38-0.19-0.57-0.27l6-15.83l-6.96,15.43c-0.19-0.07-0.37-0.13-0.56-0.2c0.01-0.04,0.01-0.08,0.02-0.13L139.05,90.3z
		 M129.3,99.92c1.69-2.81,1.69-4.89,1.7-6.71c0-0.74,0-1.45,0.12-2.14c0.3-1.84,1.7-2.92,2.22-3.17c0.07-0.04,0.13-0.06,0.2-0.06
		c0.09,0,0.13,0.06,0.14,0.09c0.01,0.03,0.03,0.13-0.09,0.22c-0.44,0.33-1.22,1.31-1.34,2.86c-0.04,0.49-0.02,1.06,0.01,1.72
		c0.07,1.96,0.17,4.64-1.29,7.25c-0.94,1.7-1.29,5.53-1.69,9.97c0,0.03,0,0.07-0.01,0.1l-0.05,0.1c-0.19-0.06-0.38-0.11-0.58-0.16
		c0-0.03,0.01-0.07,0.01-0.1c0.42-4.69,0.76-8.39,1.78-10.21c1.25-2.25,1.27-4.61,1.21-6.44c-0.02,1.91-0.03,4.05-1.8,7.01
		c-1.03,1.73-1.56,5.5-2.09,9.55c-0.21-0.04-0.41-0.07-0.62-0.1C127.67,105.6,128.19,101.76,129.3,99.92z M124.7,87.57
		c0.02-0.27,0.18-0.3,0.25-0.3c0.12,0,0.27,0.08,0.29,0.3l0.88,22.04c-0.22-0.02-0.43-0.03-0.63-0.04l-0.52-16.92l-0.51,16.92
		c-0.2,0.01-0.4,0.02-0.59,0.04c-0.02-0.04-0.03-0.09-0.04-0.13L124.7,87.57z M119.37,100.19c0.48-3.25-0.3-5.16-0.99-6.85
		c-0.28-0.69-0.54-1.33-0.71-2.02c-0.42-1.81,0.47-3.35,0.84-3.79c0.08-0.09,0.17-0.14,0.23-0.14c0.07,0,0.11,0.05,0.12,0.07
		c0.03,0.04,0.05,0.12-0.02,0.23c-0.27,0.47-0.62,1.67-0.14,3.15c0.14,0.46,0.38,0.99,0.66,1.59c0.82,1.78,1.94,4.21,1.59,7.18
		c-0.22,1.93,0.92,5.6,2.25,9.85c0,0.04,0.02,0.07,0.03,0.1l-0.01,0.11c-0.2,0.02-0.4,0.05-0.6,0.08c-0.01-0.04-0.02-0.07-0.03-0.1
		c-1.41-4.5-2.51-8.05-2.27-10.12c0.29-2.56-0.59-4.75-1.34-6.41c0.71,1.76,1.53,3.76,1.02,7.16c-0.29,2,0.67,5.68,1.73,9.64
		c-0.2,0.05-0.41,0.09-0.62,0.14C120.04,106.06,119.06,102.31,119.37,100.19z M125.03,110.16c1.95,0,3.86,0.39,5.67,1.14
		c3.67,1.52,6.52,4.37,8.04,8.04c1.52,3.66,1.52,7.7,0,11.36c-2.31,5.58-7.7,9.17-13.72,9.17c-1.96,0-3.87-0.38-5.69-1.13
		c-3.66-1.52-6.52-4.37-8.04-8.04c-1.52-3.67-1.52-7.7,0-11.36C113.61,113.76,119,110.16,125.03,110.16z M110.4,90.53
		c-0.03-0.09-0.05-0.21,0.01-0.3c0.04-0.07,0.12-0.1,0.2-0.1c0.07,0,0.2,0.03,0.28,0.19l9.26,20.03c-0.21,0.07-0.41,0.14-0.61,0.21
		l-6.95-15.44l6.01,15.83c-0.18,0.09-0.37,0.17-0.54,0.26c-0.02-0.04-0.05-0.07-0.08-0.1L110.4,90.53z M110.31,104.23
		c-0.8-3.18-2.26-4.65-3.54-5.95c-0.53-0.53-1.02-1.03-1.43-1.6c-1.09-1.52-0.86-3.27-0.67-3.82c0.04-0.14,0.12-0.22,0.2-0.22
		c0.04,0,0.08,0.02,0.11,0.06c0.04,0.04,0.05,0.11,0.04,0.19c-0.07,0.54,0.07,1.78,1.08,2.97c0.31,0.37,0.73,0.76,1.22,1.21
		c1.43,1.34,3.4,3.17,4.22,6.03c0.53,1.87,3,4.83,5.85,8.25c0.02,0.02,0.04,0.05,0.07,0.08l0.03,0.11c-0.17,0.1-0.35,0.2-0.52,0.3
		c-0.02-0.03-0.04-0.05-0.06-0.08c-3.02-3.62-5.41-6.48-5.97-8.48c-0.71-2.47-2.35-4.15-3.69-5.4c1.34,1.35,2.85,2.89,3.69,6.23
		c0.49,1.96,2.79,4.99,5.28,8.23c-0.17,0.12-0.34,0.24-0.51,0.37C113.16,109.4,110.82,106.31,110.31,104.23z M98.32,98.74
		c-0.06-0.07-0.14-0.2-0.09-0.31c0.04-0.1,0.14-0.16,0.24-0.16c0.08,0,0.16,0.03,0.22,0.08l16.22,14.97
		c-0.16,0.14-0.32,0.28-0.48,0.43l-12.33-11.6l11.61,12.34c-0.13,0.14-0.27,0.29-0.39,0.43c-0.04-0.01-0.08-0.04-0.13-0.06
		L98.32,98.74z M103.47,111.43c-1.95-2.63-3.86-3.43-5.54-4.14c-0.69-0.29-1.33-0.56-1.94-0.94c-1.57-0.97-2.04-2.68-2.08-3.26
		c-0.02-0.12,0.01-0.21,0.05-0.26c0.04-0.03,0.08-0.04,0.1-0.04c0.07,0,0.15,0.05,0.19,0.18c0.14,0.53,0.74,1.62,2.13,2.33
		c0.43,0.22,0.97,0.42,1.59,0.66c1.83,0.67,4.35,1.61,6.2,3.95c1.21,1.53,4.62,3.31,8.56,5.37c0.03,0.02,0.06,0.04,0.09,0.05
		l0.08,0.09c-0.12,0.16-0.23,0.32-0.35,0.47c-0.04-0.01-0.08-0.03-0.1-0.05c-4.17-2.19-7.47-3.91-8.76-5.55
		c-1.59-2.02-3.77-2.95-5.47-3.59c1.74,0.74,3.73,1.58,5.79,4.34c1.2,1.62,4.49,3.55,8.04,5.6c-0.11,0.17-0.23,0.36-0.33,0.54
		C108.09,115.12,104.75,113.15,103.47,111.43z M90.3,110.95c-0.15-0.07-0.23-0.18-0.2-0.31c0.02-0.1,0.12-0.2,0.27-0.2
		c0.04,0,0.08,0,0.12,0.02l20.71,7.62c-0.09,0.2-0.18,0.38-0.27,0.58l-15.84-6.01l15.46,6.96c-0.07,0.19-0.14,0.36-0.2,0.55
		c-0.06,0-0.1-0.01-0.15-0.01L90.3,110.95z M99.93,120.7c-2.83-1.68-4.89-1.69-6.72-1.7c-0.74,0-1.44-0.01-2.15-0.12
		c-1.83-0.3-2.91-1.7-3.17-2.22c-0.06-0.12-0.07-0.22-0.03-0.29c0.02-0.04,0.06-0.07,0.11-0.07c0.08,0,0.13,0.04,0.18,0.11
		c0.34,0.44,1.31,1.21,2.86,1.34c0.42,0.04,1.05,0.02,1.72-0.01c0.46-0.01,0.96-0.04,1.49-0.04c1.58,0,3.67,0.15,5.76,1.32
		c1.69,0.95,5.52,1.29,9.96,1.7c0.03,0,0.06,0,0.1,0l0.11,0.05c-0.05,0.2-0.1,0.39-0.15,0.58c-0.04,0-0.08,0-0.12-0.01
		c-4.69-0.42-8.4-0.76-10.21-1.77c-2.25-1.26-4.6-1.28-6.43-1.22c1.9,0.01,4.04,0.03,7,1.8c1.73,1.04,5.52,1.56,9.57,2.09
		c-0.04,0.21-0.08,0.41-0.11,0.63C105.6,122.33,101.76,121.8,99.93,120.7z M109.6,123.87c-0.01,0.22-0.03,0.43-0.03,0.64
		l-16.93,0.51l16.93,0.52c0,0.2,0.02,0.39,0.03,0.6c-0.04,0.01-0.09,0.02-0.14,0.04l-21.91-0.89c-0.26-0.01-0.3-0.18-0.3-0.25
		c0-0.13,0.09-0.27,0.3-0.29L109.6,123.87z"/>
	<path display="inline" fill="#FBBF49" d="M114.9,136.71c-0.14-0.13-0.3-0.26-0.44-0.4l-12.32,11.59l11.59-12.32
		c-0.14-0.16-0.29-0.31-0.43-0.48l-14.96,16.2c-0.12,0.14-0.09,0.27-0.06,0.33c0.04,0.09,0.13,0.15,0.22,0.15
		c0.08,0,0.16-0.04,0.23-0.1l16.11-14.87C114.86,136.78,114.88,136.74,114.9,136.71z"/>
	<path display="inline" fill="#FBBF49" d="M112.3,133.8c-3.24,2.49-6.28,4.79-8.23,5.27c-3.34,0.84-4.88,2.35-6.23,3.69
		c1.26-1.34,2.94-2.99,5.41-3.69c2-0.57,4.86-2.95,8.47-5.97c0.03-0.02,0.06-0.05,0.07-0.06c-0.1-0.17-0.2-0.34-0.3-0.53l-0.1,0.04
		c-0.02,0.02-0.05,0.04-0.08,0.07c-3.42,2.85-6.37,5.32-8.24,5.85c-2.87,0.81-4.7,2.78-6.03,4.21c-0.45,0.49-0.84,0.91-1.21,1.23
		c-1.19,1.01-2.35,1.09-2.67,1.09c-0.11,0-0.2,0-0.3-0.01c-0.01-0.01-0.03-0.01-0.05-0.01c-0.11,0-0.19,0.07-0.2,0.14
		c-0.01,0.09,0.07,0.17,0.23,0.23c0.11,0.04,0.51,0.15,1.14,0.15c0.69,0,1.71-0.14,2.67-0.83c0.57-0.42,1.07-0.91,1.6-1.44
		c1.29-1.28,2.76-2.73,5.95-3.53c2.08-0.52,5.16-2.85,8.45-5.37C112.55,134.15,112.42,133.98,112.3,133.8z"/>
	<path display="inline" fill="#FBBF49" d="M109.91,128.27c-3.95,1.06-7.64,2.02-9.64,1.72c-3.4-0.5-5.4,0.31-7.15,1.03
		c1.67-0.76,3.85-1.64,6.4-1.34c2.07,0.24,5.62-0.87,10.12-2.27c0.03-0.01,0.06-0.02,0.1-0.03c-0.03-0.2-0.06-0.4-0.08-0.6h-0.11
		c-0.03,0.01-0.06,0.02-0.09,0.03c-3.91,1.23-7.29,2.27-9.32,2.27c-0.2,0-0.37-0.01-0.54-0.03c-0.36-0.04-0.74-0.07-1.11-0.07
		c-2.46,0-4.55,0.96-6.07,1.66c-0.6,0.28-1.12,0.52-1.58,0.67c-0.49,0.15-0.99,0.23-1.48,0.23c-0.64,0-1.26-0.14-1.68-0.39
		c-0.05-0.03-0.09-0.04-0.13-0.04c-0.07,0-0.13,0.03-0.15,0.09c-0.03,0.07,0.02,0.17,0.14,0.26c0.38,0.34,1.46,0.96,2.79,0.96
		c0.34,0,0.66-0.04,1-0.12c0.68-0.16,1.33-0.43,2.02-0.71c1.31-0.53,2.79-1.14,4.93-1.14c0.6,0,1.26,0.05,1.92,0.15
		c0.26,0.05,0.57,0.06,0.9,0.06c2.19,0,5.47-0.85,8.97-1.79C110,128.69,109.96,128.48,109.91,128.27z"/>
	<path display="inline" fill="#FBBF49" d="M111.21,131.95c-0.09-0.18-0.17-0.36-0.26-0.54l-15.83,6l15.44-6.96
		c-0.07-0.2-0.14-0.4-0.2-0.6l-20.04,9.26c-0.21,0.11-0.19,0.28-0.17,0.34c0.01,0.04,0.06,0.18,0.23,0.18c0.05,0,0.1-0.01,0.16-0.02
		l20.57-7.58C111.13,132,111.17,131.97,111.21,131.95z"/>
	<path display="inline" fill="#FBBF49" d="M116.63,138c-2.03,3.53-3.96,6.82-5.58,8.02c-2.76,2.06-3.6,4.03-4.34,5.79
		c0.65-1.71,1.57-3.89,3.59-5.48c1.63-1.29,3.36-4.59,5.55-8.75c0.02-0.03,0.03-0.06,0.03-0.08c-0.16-0.12-0.32-0.24-0.48-0.37
		l-0.06,0.06c-0.02,0.04-0.04,0.07-0.06,0.09c-2.06,3.95-3.85,7.35-5.38,8.56c-2.34,1.85-3.28,4.36-3.95,6.21
		c-0.23,0.62-0.43,1.16-0.66,1.58c-0.71,1.39-1.8,1.99-2.33,2.12c-0.13,0.04-0.19,0.13-0.17,0.21c0.02,0.12,0.17,0.14,0.25,0.14
		c0.02,0,0.03,0,0.05,0c0.57-0.04,2.29-0.51,3.27-2.08c0.37-0.61,0.63-1.26,0.93-1.94c0.7-1.67,1.51-3.58,4.14-5.54
		c1.72-1.27,3.67-4.6,5.74-8.18C116.99,138.23,116.81,138.11,116.63,138z"/>
	<path display="inline" fill="#FBBF49" d="M133.35,112c2.05-3.53,3.97-6.82,5.59-8.02c2.76-2.05,3.6-4.03,4.33-5.79
		c-0.63,1.71-1.56,3.89-3.58,5.48c-1.63,1.29-3.36,4.59-5.55,8.75c-0.02,0.03-0.03,0.06-0.03,0.08c0.16,0.12,0.32,0.24,0.48,0.37
		l0.07-0.06c0.02-0.03,0.03-0.06,0.05-0.09c2.07-3.94,3.85-7.35,5.38-8.56c2.34-1.85,3.28-4.36,3.96-6.2
		c0.23-0.63,0.43-1.17,0.65-1.59c0.71-1.4,1.8-1.99,2.33-2.13c0.14-0.04,0.19-0.13,0.18-0.21c-0.01-0.12-0.18-0.14-0.24-0.14
		c-0.02,0-0.04,0-0.05,0.01c-0.57,0.04-2.29,0.51-3.26,2.08c-0.37,0.6-0.65,1.26-0.93,1.93c-0.71,1.68-1.51,3.59-4.15,5.55
		c-1.72,1.27-3.68,4.6-5.75,8.19C133.01,111.78,133.18,111.89,133.35,112z"/>
	<path display="inline" fill="#FBBF49" d="M131.02,122.13c0.16,0.18,0.25,0.43,0.25,0.69c0,0.38-0.2,0.72-0.51,0.91
		c0.62-0.11,1.17-0.42,1.61-0.87C131.95,122.52,131.5,122.27,131.02,122.13z"/>
	<path display="inline" fill="#FBBF49" d="M111.3,119.34c-1.52,3.66-1.52,7.7,0,11.36c1.52,3.66,4.38,6.52,8.04,8.04
		c1.82,0.75,3.73,1.13,5.69,1.13c6.03,0,11.41-3.59,13.72-9.17c1.52-3.67,1.52-7.7,0-11.36c-1.52-3.67-4.37-6.52-8.04-8.04
		c-1.82-0.75-3.72-1.14-5.67-1.14C119,110.16,113.61,113.76,111.3,119.34z M115.97,122.76c0.58-1.03,2.16-2.34,3.78-2.34
		c0.96,0,1.79,0.21,2.63,1.25c0.57,0.69,1.04,0.96,1.04,0.96c-0.4,0-0.87-0.35-1.19-0.67c-0.74-0.72-1.52-0.92-2.22-0.92
		C117.62,121.05,115.97,122.76,115.97,122.76z M120.1,121.48c1.32,0.08,2.04,0.94,2.43,1.57c-0.32,0.37-1.45,0.92-2.57,0.92
		c-1,0-2.17-0.28-2.99-1.1C117.34,122.58,118.54,121.38,120.1,121.48z M117.02,123.53c0.83,0.58,1.78,0.9,2.95,0.9
		c1.06,0,2.02-0.4,2.57-0.93c-0.32,0.71-1.4,1.43-2.57,1.43C118.66,124.94,117.62,124.42,117.02,123.53z M127.04,136.17
		c-0.12-1.05-1.02-1.82-2.11-1.82c-1.09,0-1.98,0.77-2.1,1.82c-0.02-0.08-0.02-0.17-0.02-0.26c0-1.16,0.95-2.16,2.12-2.16
		c1.17,0,2.12,1,2.12,2.16C127.06,136,127.05,136.09,127.04,136.17z M127.47,132.5c-0.54,0.44-1.21,1-2.47,1h-0.01
		c-1.26,0-1.93-0.56-2.47-1c-0.38-0.32-0.9-0.7-1.31-0.7c0.54-0.08,1.01,0.02,1.63,0.47c0.56,0.41,1.28,0.65,2.16,0.65
		c0.87,0,1.59-0.23,2.15-0.65c0.62-0.45,1.11-0.55,1.64-0.47C128.37,131.79,127.85,132.17,127.47,132.5z M121.64,131.67
		c0.75-0.07,0.97-0.42,2.22-0.32c0.41,0.04,0.57,0.2,1.14,0.2c0.56,0,0.73-0.16,1.13-0.2c1.25-0.1,1.48,0.25,2.23,0.32
		c-0.69,0.07-1.27-0.1-1.89,0.04c-0.42,0.09-0.88,0.38-1.47,0.38s-1.06-0.29-1.47-0.38C122.91,131.58,122.33,131.74,121.64,131.67z
		 M127.26,130.87c-1.17-0.55-1.41,0.07-2.26,0.07c-0.86,0-1.09-0.63-2.26-0.07c-0.21,0.1-1.38,0.99-1.78,0.86
		c0.62-0.19,1.19-0.89,1.6-1.26c0.58-0.53,1.64-0.66,2.45-0.15c0.8-0.51,1.86-0.38,2.44,0.15c0.41,0.37,0.97,1.07,1.6,1.26
		C128.63,131.86,127.46,130.97,127.26,130.87z M130.04,124.94c-1.18,0-2.27-0.72-2.58-1.43c0.54,0.53,1.5,0.93,2.58,0.93
		c1.16,0,2.11-0.33,2.94-0.9C132.38,124.42,131.34,124.94,130.04,124.94z M130.04,123.97c-1.14,0-2.26-0.55-2.58-0.92
		c0.38-0.64,1.11-1.49,2.42-1.57c1.57-0.09,2.77,1.1,3.13,1.39C132.2,123.7,131.03,123.97,130.04,123.97z M129.98,121.05
		c-0.69,0-1.48,0.2-2.21,0.92c-0.32,0.32-0.8,0.67-1.19,0.67c0,0,0.47-0.27,1.03-0.96c0.84-1.04,1.69-1.25,2.63-1.25
		c1.62,0,3.21,1.31,3.79,2.34C134.03,122.76,132.37,121.05,129.98,121.05z M126.01,120.04c1.85-1.78,5.92-3.29,8.79,1.91
		c-2.36-2.98-5.8-3.44-8.23-1.3c-1.3,2.16-0.49,5.03,0.7,6.07C125.76,126.15,124.62,122.97,126.01,120.04z M126.42,127.85
		c0.11,0.33,0.41,0.56,0.77,0.56c0.46,0,0.82-0.37,0.82-0.82c0-0.17-0.05-0.32-0.13-0.45c0.23,0.2,0.38,0.49,0.38,0.82
		c0,0.59-0.47,1.07-1.07,1.07c-0.36,0-0.69-0.19-0.89-0.46c-0.35,0.29-0.81,0.46-1.31,0.46c-0.51,0-0.96-0.18-1.32-0.46
		c-0.2,0.28-0.52,0.46-0.88,0.46c-0.59,0-1.07-0.48-1.07-1.07c0-0.33,0.15-0.62,0.39-0.82c-0.09,0.13-0.14,0.28-0.14,0.45
		c0,0.46,0.37,0.82,0.83,0.82c0.36,0,0.66-0.23,0.77-0.56c0.37,0.34,0.88,0.56,1.43,0.56C125.55,128.41,126.05,128.19,126.42,127.85
		z M123.98,120.04c1.4,2.93,0.26,6.11-1.26,6.68c1.2-1.05,2.01-3.92,0.72-6.07c-2.43-2.14-5.88-1.69-8.24,1.3
		C118.05,116.75,122.14,118.26,123.98,120.04z"/>
	<path display="inline" fill="#FBBF49" d="M129.09,122.82c0-0.31,0.12-0.59,0.33-0.78c-0.53,0.12-1,0.46-1.39,1.03
		c0.53,0.33,1.04,0.53,1.52,0.63C129.27,123.5,129.09,123.18,129.09,122.82z"/>
	<path display="inline" fill="#FBBF49" d="M118.05,111.21c0.17-0.09,0.36-0.17,0.54-0.26l-6.01-15.83l6.95,15.44
		c0.2-0.07,0.4-0.15,0.61-0.21l-9.26-20.03c-0.08-0.16-0.21-0.19-0.28-0.19c-0.08,0-0.17,0.04-0.2,0.1
		c-0.06,0.09-0.04,0.21-0.01,0.3l7.58,20.57C118.01,111.14,118.03,111.17,118.05,111.21z"/>
	<path display="inline" fill="#FBBF49" d="M118.73,122.82c0-0.26,0.09-0.51,0.24-0.69c-0.47,0.15-0.92,0.39-1.35,0.73
		c0.44,0.46,0.99,0.76,1.62,0.87C118.92,123.54,118.73,123.2,118.73,122.82z"/>
	<path display="inline" fill="#FBBF49" d="M113.32,114.91c0.12-0.14,0.26-0.29,0.39-0.43l-11.61-12.34l12.33,11.6
		c0.16-0.14,0.32-0.29,0.48-0.43L98.69,98.35c-0.06-0.05-0.14-0.08-0.22-0.08c-0.1,0-0.2,0.06-0.24,0.16
		c-0.05,0.12,0.02,0.24,0.09,0.31l14.87,16.12C113.23,114.87,113.28,114.9,113.32,114.91z"/>
	<path display="inline" fill="#FBBF49" d="M116.2,112.32c-2.49-3.24-4.79-6.28-5.28-8.23c-0.83-3.34-2.35-4.88-3.69-6.23
		c1.34,1.25,2.98,2.93,3.69,5.4c0.57,2,2.95,4.87,5.97,8.48c0.02,0.03,0.05,0.05,0.06,0.08c0.17-0.1,0.35-0.2,0.52-0.3l-0.03-0.11
		c-0.03-0.02-0.05-0.05-0.07-0.08c-2.84-3.42-5.32-6.38-5.85-8.25c-0.82-2.86-2.78-4.69-4.22-6.03c-0.49-0.44-0.91-0.84-1.22-1.21
		c-1.01-1.19-1.15-2.43-1.08-2.97c0.01-0.07,0-0.14-0.04-0.19c-0.03-0.04-0.07-0.06-0.11-0.06c-0.09,0-0.17,0.08-0.2,0.22
		c-0.19,0.55-0.41,2.3,0.67,3.82c0.41,0.57,0.91,1.07,1.43,1.6c1.28,1.29,2.73,2.76,3.54,5.95c0.52,2.08,2.86,5.17,5.38,8.46
		C115.86,112.56,116.03,112.43,116.2,112.32z"/>
	<path display="inline" fill="#FBBF49" d="M129.84,100.25c1.77-2.96,1.78-5.11,1.8-7.01c0.06,1.83,0.03,4.19-1.21,6.44
		c-1.02,1.82-1.36,5.52-1.78,10.21c0,0.03-0.01,0.07-0.01,0.1c0.2,0.05,0.39,0.1,0.58,0.16l0.05-0.1c0.01-0.03,0.01-0.07,0.01-0.1
		c0.4-4.44,0.75-8.27,1.69-9.97c1.46-2.61,1.36-5.28,1.29-7.25c-0.03-0.66-0.05-1.23-0.01-1.72c0.13-1.54,0.91-2.52,1.34-2.86
		c0.12-0.09,0.11-0.2,0.09-0.22c-0.01-0.04-0.05-0.09-0.14-0.09c-0.06,0-0.13,0.02-0.2,0.06c-0.52,0.26-1.92,1.34-2.22,3.17
		c-0.12,0.69-0.12,1.4-0.12,2.14c-0.01,1.82-0.02,3.9-1.7,6.71c-1.11,1.83-1.63,5.67-2.17,9.78c0.21,0.03,0.41,0.06,0.62,0.1
		C128.28,105.75,128.8,101.98,129.84,100.25z"/>
	<path display="inline" fill="#FBBF49" d="M129.84,110.34c0.19,0.06,0.37,0.13,0.56,0.2l6.96-15.43l-6,15.83
		c0.19,0.08,0.38,0.18,0.57,0.27l7.62-20.7c0.04-0.11,0.03-0.21-0.03-0.29c-0.05-0.07-0.14-0.11-0.21-0.11
		c-0.13,0-0.21,0.11-0.26,0.2l-9.19,19.9C129.85,110.25,129.85,110.29,129.84,110.34z"/>
	<path display="inline" fill="#FBBF49" d="M137.7,116.19c3.24-2.48,6.26-4.78,8.22-5.27c3.34-0.84,4.87-2.35,6.22-3.69
		c-1.25,1.34-2.93,2.99-5.4,3.69c-2,0.57-4.86,2.95-8.48,5.96c-0.02,0.02-0.04,0.04-0.06,0.06c0.1,0.17,0.21,0.35,0.31,0.52
		l0.07-0.02c0.03-0.03,0.06-0.05,0.08-0.08c3.43-2.84,6.38-5.31,8.25-5.84c2.86-0.81,4.7-2.78,6.03-4.21
		c0.45-0.49,0.84-0.91,1.21-1.22c1.2-1.01,2.35-1.09,2.68-1.09c0.1,0,0.2,0,0.29,0.02c0.14,0.02,0.23-0.06,0.24-0.14
		c0.02-0.09-0.07-0.17-0.23-0.23c-0.11-0.04-0.52-0.15-1.15-0.15c-0.69,0-1.72,0.14-2.66,0.83c-0.58,0.42-1.08,0.91-1.61,1.44
		c-1.29,1.28-2.75,2.73-5.95,3.53c-2.07,0.52-5.15,2.84-8.43,5.36C137.47,115.84,137.58,116.01,137.7,116.19z"/>
	<path display="inline" fill="#FBBF49" d="M135.09,113.29c0.15,0.13,0.31,0.26,0.45,0.4l12.32-11.59l-11.58,12.31
		c0.14,0.15,0.29,0.31,0.43,0.48l14.94-16.19c0.12-0.14,0.09-0.27,0.06-0.33c-0.03-0.09-0.12-0.15-0.21-0.15
		c-0.08,0-0.15,0.03-0.23,0.1l-16.11,14.87C135.13,113.23,135.11,113.26,135.09,113.29z"/>
	<path display="inline" fill="#FBBF49" d="M121.72,109.92c-1.06-3.95-2.02-7.64-1.73-9.64c0.51-3.4-0.3-5.4-1.02-7.16
		c0.75,1.67,1.63,3.85,1.34,6.41c-0.24,2.07,0.86,5.62,2.27,10.12c0.01,0.03,0.02,0.06,0.03,0.1c0.2-0.03,0.4-0.06,0.6-0.08
		l0.01-0.11c-0.01-0.03-0.03-0.06-0.03-0.1c-1.33-4.25-2.47-7.92-2.25-9.85c0.35-2.97-0.77-5.4-1.59-7.18
		c-0.28-0.6-0.52-1.12-0.66-1.59c-0.48-1.49-0.13-2.68,0.14-3.15c0.07-0.11,0.05-0.19,0.02-0.23c-0.01-0.02-0.05-0.07-0.12-0.07
		c-0.06,0-0.15,0.05-0.23,0.14c-0.37,0.44-1.26,1.98-0.84,3.79c0.17,0.69,0.43,1.33,0.71,2.02c0.69,1.69,1.47,3.6,0.99,6.85
		c-0.31,2.12,0.66,5.87,1.73,9.87C121.31,110.01,121.52,109.96,121.72,109.92z"/>
	<path display="inline" fill="#FBBF49" d="M120.45,123.7c0.48-0.1,0.98-0.3,1.51-0.63c-0.39-0.57-0.86-0.91-1.4-1.03
		c0.21,0.2,0.34,0.47,0.34,0.78C120.91,123.18,120.73,123.5,120.45,123.7z"/>
	<path display="inline" fill="#FBBF49" d="M124.46,109.57l0.51-16.92l0.52,16.92c0.2,0.01,0.42,0.02,0.63,0.04l-0.88-22.04
		c-0.02-0.22-0.17-0.3-0.29-0.3c-0.07,0-0.23,0.03-0.25,0.3l-0.88,21.91c0.01,0.04,0.02,0.09,0.04,0.13
		C124.06,109.59,124.26,109.58,124.46,109.57z"/>
	<path display="inline" fill="#FBBF49" d="M112.02,116.66c-3.55-2.05-6.84-3.98-8.04-5.6c-2.06-2.76-4.04-3.6-5.79-4.34
		c1.71,0.64,3.88,1.57,5.47,3.59c1.29,1.63,4.59,3.36,8.76,5.55c0.03,0.02,0.06,0.04,0.1,0.05c0.12-0.15,0.23-0.31,0.35-0.47
		l-0.08-0.09c-0.03-0.01-0.06-0.03-0.09-0.05c-3.94-2.06-7.35-3.85-8.56-5.37c-1.84-2.34-4.36-3.28-6.2-3.95
		c-0.63-0.23-1.17-0.44-1.59-0.66c-1.39-0.72-1.99-1.81-2.13-2.33c-0.03-0.13-0.12-0.18-0.19-0.18c-0.02,0-0.06,0.02-0.1,0.04
		c-0.04,0.05-0.06,0.14-0.05,0.26c0.04,0.58,0.51,2.29,2.08,3.26c0.6,0.37,1.25,0.65,1.94,0.94c1.68,0.7,3.59,1.51,5.54,4.14
		c1.27,1.72,4.62,3.69,8.22,5.76C111.8,117.01,111.91,116.83,112.02,116.66z"/>
	<path display="inline" fill="#FBBF49" d="M120.15,139.69c-0.19-0.06-0.37-0.13-0.57-0.2l-6.94,15.43l5.99-15.81
		c-0.2-0.09-0.38-0.18-0.58-0.27l-7.61,20.68c-0.03,0.11-0.02,0.21,0.04,0.29c0.05,0.07,0.13,0.11,0.21,0.11
		c0.13,0,0.21-0.11,0.26-0.2l9.19-19.91C120.15,139.76,120.15,139.73,120.15,139.69z"/>
	<path display="inline" fill="#FBBF49" d="M131.98,138.84c-0.19,0.09-0.37,0.18-0.55,0.26l5.98,15.79l-6.94-15.4
		c-0.2,0.08-0.4,0.14-0.6,0.21l9.23,19.99c0.08,0.16,0.21,0.18,0.27,0.18c0.09,0,0.17-0.03,0.2-0.1c0.07-0.09,0.05-0.22,0.02-0.3
		l-7.58-20.57C132.01,138.87,131.98,138.85,131.98,138.84z"/>
	<path display="inline" fill="#FBBF49" d="M133.83,137.73c2.48,3.23,4.75,6.25,5.24,8.19c0.83,3.34,2.35,4.88,3.69,6.23
		c-1.34-1.24-2.98-2.93-3.69-5.41c-0.56-2-2.95-4.86-5.97-8.47c-0.02-0.01-0.03-0.03-0.04-0.04c-0.17,0.11-0.35,0.21-0.53,0.31
		l0.02,0.05c0.02,0.03,0.05,0.05,0.07,0.08c2.85,3.42,5.32,6.37,5.84,8.24c0.81,2.87,2.79,4.69,4.22,6.03
		c0.49,0.45,0.91,0.84,1.22,1.21c1,1.19,1.15,2.43,1.07,2.96c-0.01,0.08,0.01,0.15,0.05,0.19c0.03,0.04,0.07,0.06,0.11,0.06
		c0.09,0,0.16-0.08,0.2-0.23c0.18-0.55,0.4-2.3-0.68-3.82c-0.41-0.57-0.91-1.07-1.43-1.6c-1.28-1.29-2.74-2.76-3.54-5.95
		c-0.52-2.07-2.84-5.14-5.35-8.41C134.18,137.49,134.01,137.61,133.83,137.73z"/>
	<path display="inline" fill="#FBBF49" d="M136.73,135.12c-0.13,0.15-0.26,0.3-0.4,0.45l11.57,12.3l-12.29-11.57
		c-0.16,0.15-0.31,0.29-0.48,0.43l16.17,14.93c0.06,0.06,0.14,0.08,0.21,0.08c0.12,0,0.21-0.06,0.25-0.14
		c0.05-0.12-0.03-0.24-0.09-0.33l-14.87-16.11C136.78,135.14,136.76,135.13,136.73,135.12z"/>
	<path display="inline" fill="#FBBF49" d="M120.16,149.75c-1.77,2.96-1.79,5.11-1.8,7.01c-0.06-1.83-0.04-4.18,1.22-6.43
		c1.01-1.82,1.35-5.52,1.77-10.21c0.01-0.03,0.01-0.05,0.01-0.07c-0.2-0.05-0.39-0.11-0.59-0.17l-0.04,0.08c0,0.04,0,0.06-0.01,0.1
		c-0.4,4.44-0.75,8.27-1.69,9.97c-1.46,2.61-1.36,5.29-1.28,7.25c0.02,0.66,0.04,1.23,0,1.72c-0.13,1.55-0.9,2.52-1.34,2.85
		c-0.12,0.1-0.1,0.2-0.09,0.23c0.02,0.03,0.04,0.09,0.15,0.09c0.06,0,0.12-0.02,0.2-0.06c0.52-0.26,1.92-1.34,2.21-3.17
		c0.12-0.69,0.12-1.4,0.13-2.14c0-1.83,0.01-3.89,1.7-6.71c1.09-1.83,1.63-5.65,2.17-9.75c-0.21-0.03-0.41-0.07-0.63-0.11
		C121.71,144.27,121.19,148.03,120.16,149.75z"/>
	<path display="inline" fill="#FBBF49" d="M138.02,133.38c3.52,2.04,6.79,3.96,7.99,5.57c2.06,2.76,4.03,3.6,5.78,4.33
		c-1.71-0.64-3.87-1.56-5.48-3.58c-1.29-1.63-4.57-3.36-8.75-5.55c-0.02-0.01-0.03-0.02-0.05-0.03c-0.12,0.17-0.25,0.34-0.38,0.5
		l0.04,0.04c0.03,0.02,0.06,0.04,0.09,0.06c3.94,2.06,7.35,3.85,8.56,5.37c1.85,2.35,4.37,3.27,6.2,3.96
		c0.62,0.23,1.16,0.43,1.58,0.65c1.4,0.71,2,1.81,2.13,2.33c0.03,0.13,0.12,0.18,0.19,0.18c0.03,0,0.07-0.01,0.1-0.04
		c0.05-0.06,0.06-0.14,0.06-0.26c-0.05-0.57-0.51-2.29-2.09-3.26c-0.6-0.37-1.25-0.65-1.93-0.94c-1.69-0.7-3.58-1.51-5.55-4.14
		c-1.26-1.71-4.58-3.66-8.17-5.74C138.25,133.02,138.14,133.2,138.02,133.38z"/>
	<path display="inline" fill="#FBBF49" d="M125.53,140.47l-0.51,16.89l-0.51-16.9c-0.22,0-0.43-0.01-0.64-0.03l0.88,22.01
		c0.01,0.22,0.17,0.29,0.29,0.29c0.08,0,0.23-0.03,0.26-0.3l0.88-21.91c-0.01-0.03-0.02-0.06-0.03-0.09
		C125.94,140.45,125.74,140.47,125.53,140.47z"/>
	<path display="inline" fill="#FBBF49" d="M110.36,120.16c0.06-0.19,0.12-0.36,0.2-0.55l-15.46-6.96l15.84,6.01
		c0.09-0.2,0.17-0.39,0.27-0.58l-20.71-7.62c-0.03-0.01-0.08-0.02-0.12-0.02c-0.15,0-0.25,0.1-0.27,0.2
		c-0.03,0.13,0.04,0.24,0.2,0.31l19.9,9.2C110.25,120.15,110.3,120.15,110.36,120.16z"/>
	<path display="inline" fill="#FBBF49" d="M128.28,140.14c1.06,3.93,2.01,7.59,1.72,9.58c-0.51,3.41,0.3,5.41,1.02,7.17
		c-0.76-1.67-1.64-3.85-1.34-6.41c0.24-2.07-0.86-5.62-2.27-10.12c-0.01-0.02-0.01-0.03-0.02-0.06c-0.2,0.03-0.41,0.06-0.62,0.08
		v0.07c0,0.03,0.02,0.06,0.03,0.1c1.33,4.25,2.48,7.92,2.25,9.85c-0.35,2.97,0.77,5.4,1.59,7.18c0.28,0.6,0.52,1.13,0.66,1.59
		c0.47,1.48,0.13,2.68-0.15,3.15c-0.07,0.11-0.04,0.19-0.02,0.23c0.01,0.02,0.05,0.07,0.12,0.07c0.07,0,0.15-0.05,0.23-0.14
		c0.37-0.44,1.25-1.98,0.83-3.79c-0.17-0.69-0.43-1.33-0.71-2.02c-0.68-1.69-1.47-3.6-0.99-6.85c0.31-2.11-0.65-5.83-1.72-9.82
		C128.69,140.04,128.49,140.08,128.28,140.14z"/>
	<path display="inline" fill="#FBBF49" d="M138.81,118.04c0.09,0.18,0.18,0.36,0.26,0.54l15.81-5.99l-15.41,6.94
		c0.07,0.2,0.14,0.4,0.21,0.6l20.01-9.23c0.2-0.11,0.19-0.29,0.17-0.34c-0.01-0.04-0.06-0.18-0.23-0.18c-0.05,0-0.11,0.01-0.16,0.02
		l-20.57,7.58C138.87,118,138.84,118.02,138.81,118.04z"/>
	<path display="inline" fill="#FBBF49" d="M87.26,125.04c0,0.07,0.04,0.23,0.3,0.25l21.91,0.89c0.05-0.02,0.09-0.03,0.14-0.04
		c-0.01-0.2-0.03-0.4-0.03-0.6l-16.93-0.52l16.93-0.51c0-0.21,0.02-0.43,0.03-0.64l-22.05,0.89
		C87.35,124.77,87.26,124.91,87.26,125.04z"/>
	<path display="inline" fill="#FBBF49" d="M139.7,129.85c-0.06,0.19-0.13,0.38-0.2,0.57l15.4,6.94l-15.8-5.99
		c-0.08,0.2-0.17,0.39-0.27,0.58l20.66,7.61c0.03,0,0.08,0.01,0.12,0.01c0.16,0,0.26-0.1,0.28-0.21c0.03-0.12-0.05-0.24-0.2-0.3
		l-19.9-9.21C139.76,129.86,139.74,129.85,139.7,129.85z"/>
	<path display="inline" fill="#FBBF49" d="M109.82,122.26c-4.06-0.54-7.84-1.06-9.57-2.09c-2.96-1.76-5.1-1.78-7-1.8
		c1.83-0.06,4.18-0.03,6.43,1.22c1.82,1.01,5.52,1.35,10.21,1.77c0.04,0.01,0.08,0.01,0.12,0.01c0.05-0.2,0.1-0.39,0.15-0.58
		l-0.11-0.05c-0.04,0-0.08,0-0.1,0c-4.44-0.4-8.27-0.74-9.96-1.7c-2.09-1.17-4.17-1.32-5.76-1.32c-0.53,0-1.03,0.02-1.49,0.04
		c-0.67,0.03-1.29,0.05-1.72,0.01c-1.55-0.13-2.53-0.91-2.86-1.34c-0.05-0.07-0.1-0.11-0.18-0.11c-0.05,0-0.09,0.03-0.11,0.07
		c-0.05,0.06-0.03,0.17,0.03,0.29c0.26,0.52,1.35,1.91,3.17,2.22c0.7,0.11,1.4,0.12,2.15,0.12c1.82,0.01,3.89,0.02,6.72,1.7
		c1.83,1.1,5.67,1.63,9.78,2.18C109.74,122.67,109.78,122.46,109.82,122.26z"/>
	<path display="inline" fill="#FBBF49" d="M140.12,121.72c3.93-1.05,7.61-2.01,9.6-1.71c3.41,0.5,5.4-0.31,7.16-1.03
		c-1.66,0.76-3.84,1.64-6.41,1.34c-2.06-0.23-5.62,0.87-10.12,2.27c-0.02,0-0.04,0.01-0.06,0.02c0.03,0.2,0.06,0.4,0.08,0.61l0.07,0
		c0.04-0.01,0.06-0.02,0.1-0.03c3.92-1.22,7.29-2.27,9.32-2.27c0.19,0,0.37,0.01,0.53,0.03c0.37,0.05,0.75,0.07,1.12,0.07
		c2.46,0,4.54-0.96,6.06-1.66c0.61-0.28,1.12-0.52,1.58-0.67c0.49-0.16,0.99-0.23,1.48-0.23c0.65,0,1.26,0.14,1.68,0.39
		c0.12,0.07,0.25,0.04,0.29-0.06c0.03-0.07-0.02-0.18-0.13-0.27c-0.38-0.33-1.46-0.95-2.8-0.95c-0.34,0-0.67,0.04-0.98,0.12
		c-0.69,0.16-1.34,0.43-2.03,0.71c-1.31,0.53-2.79,1.14-4.93,1.14c-0.61,0-1.26-0.06-1.93-0.15c-0.26-0.04-0.56-0.07-0.89-0.07
		c-2.18,0-5.45,0.85-8.94,1.79C140.03,121.31,140.07,121.51,140.12,121.72z"/>
	<path display="inline" fill="#FBBF49" d="M140.23,127.76c4.04,0.53,7.79,1.05,9.52,2.08c2.96,1.76,5.11,1.79,7.01,1.8
		c-1.83,0.06-4.18,0.03-6.43-1.22c-1.82-1.01-5.52-1.35-10.21-1.77c-0.03-0.01-0.04-0.01-0.06-0.01c-0.05,0.21-0.1,0.4-0.16,0.6
		l0.06,0.03c0.03,0,0.07,0,0.11,0.01c4.43,0.4,8.26,0.74,9.96,1.69c2.09,1.17,4.17,1.32,5.75,1.32c0.54,0,1.04-0.02,1.5-0.04
		c0.38-0.02,0.76-0.03,1.09-0.03c0.24,0,0.44,0,0.63,0.02c1.55,0.13,2.53,0.91,2.86,1.34c0.05,0.07,0.11,0.11,0.18,0.11
		c0.06,0,0.09-0.03,0.12-0.06c0.04-0.07,0.03-0.17-0.04-0.29c-0.26-0.51-1.34-1.91-3.17-2.21c-0.7-0.11-1.4-0.12-2.14-0.12
		c-1.83-0.01-3.89-0.02-6.71-1.7c-1.83-1.1-5.64-1.63-9.74-2.17C140.31,127.34,140.27,127.55,140.23,127.76z"/>
	<path display="inline" fill="#FBBF49" d="M140.44,123.86c0.01,0.2,0.03,0.4,0.04,0.61l16.88,0.52l-16.88,0.51
		c-0.01,0.21-0.03,0.42-0.04,0.63l22-0.88c0.2-0.01,0.29-0.15,0.29-0.29c0-0.07-0.03-0.24-0.3-0.25l-21.91-0.88
		C140.5,123.84,140.47,123.85,140.44,123.86z"/>
	<path display="inline" fill="#853612" d="M122.8,128.41c-0.46,0-0.83-0.37-0.83-0.82c0-0.17,0.06-0.32,0.14-0.45
		c-0.24,0.2-0.39,0.49-0.39,0.82c0,0.59,0.48,1.07,1.07,1.07c0.37,0,0.69-0.19,0.88-0.46c0.36,0.29,0.81,0.46,1.32,0.46
		c0.5,0,0.96-0.18,1.31-0.46c0.2,0.28,0.52,0.46,0.89,0.46c0.6,0,1.07-0.48,1.07-1.07c0-0.33-0.14-0.62-0.38-0.82
		c0.08,0.13,0.13,0.28,0.13,0.45c0,0.46-0.36,0.82-0.82,0.82c-0.36,0-0.66-0.23-0.77-0.56c-0.37,0.34-0.87,0.56-1.42,0.56
		c-0.56,0-1.06-0.22-1.43-0.56C123.46,128.17,123.16,128.41,122.8,128.41z"/>
	<path display="inline" fill="#853612" d="M123.43,120.65c1.3,2.16,0.49,5.03-0.72,6.07c1.53-0.57,2.66-3.75,1.26-6.68
		c-1.84-1.78-5.92-3.29-8.79,1.91C117.55,118.96,121,118.51,123.43,120.65z"/>
	<path display="inline" fill="#853612" d="M130.23,120.42c-0.94,0-1.79,0.21-2.63,1.25c-0.56,0.69-1.03,0.96-1.03,0.96
		c0.39,0,0.86-0.35,1.19-0.67c0.73-0.72,1.53-0.92,2.21-0.92c2.39,0,4.05,1.71,4.05,1.71C133.44,121.73,131.86,120.42,130.23,120.42
		z"/>
	<path display="inline" fill="#853612" d="M127.15,132.27c-0.56,0.41-1.28,0.65-2.15,0.65c-0.88,0-1.6-0.23-2.16-0.65
		c-0.62-0.45-1.09-0.55-1.63-0.47c0.41,0,0.94,0.38,1.31,0.7c0.54,0.44,1.2,1,2.47,1H125c1.26,0,1.94-0.56,2.47-1
		c0.37-0.32,0.9-0.7,1.32-0.7C128.26,131.72,127.77,131.81,127.15,132.27z"/>
	<path display="inline" fill="#853612" d="M122.54,123.51c-0.55,0.53-1.51,0.93-2.57,0.93c-1.16,0-2.11-0.33-2.95-0.9
		c0.6,0.89,1.64,1.41,2.95,1.41C121.13,124.94,122.22,124.22,122.54,123.51z"/>
	<path display="inline" fill="#853612" d="M124.94,133.75c-1.17,0-2.12,1-2.12,2.16c0,0.09,0,0.18,0.02,0.26
		c0.12-1.05,1.01-1.82,2.1-1.82c1.09,0,1.98,0.77,2.11,1.82c0.01-0.08,0.02-0.17,0.02-0.26
		C127.06,134.75,126.11,133.75,124.94,133.75z"/>
	<path display="inline" fill="#853612" d="M122.54,123.05c-0.39-0.64-1.11-1.49-2.43-1.57c-1.56-0.09-2.77,1.1-3.12,1.39
		c0.81,0.82,1.98,1.1,2.99,1.1C121.09,123.97,122.22,123.43,122.54,123.05z M120.57,122.03c0.54,0.12,1,0.46,1.4,1.03
		c-0.53,0.33-1.04,0.53-1.51,0.63c0.28-0.2,0.46-0.51,0.46-0.88C120.91,122.51,120.78,122.23,120.57,122.03z M117.61,122.86
		c0.43-0.34,0.88-0.58,1.35-0.73c-0.14,0.18-0.24,0.43-0.24,0.69c0,0.38,0.2,0.72,0.51,0.91
		C118.6,123.62,118.05,123.31,117.61,122.86z"/>
	<path display="inline" fill="#853612" d="M122.24,121.96c0.32,0.32,0.79,0.67,1.19,0.67c0,0-0.48-0.27-1.04-0.96
		c-0.84-1.04-1.67-1.25-2.63-1.25c-1.62,0-3.2,1.31-3.78,2.34c0,0,1.65-1.71,4.05-1.71C120.71,121.05,121.5,121.24,122.24,121.96z"
		/>
	<path display="inline" fill="#853612" d="M127.46,123.51c0.31,0.71,1.39,1.43,2.58,1.43c1.3,0,2.34-0.52,2.94-1.41
		c-0.83,0.58-1.78,0.9-2.94,0.9C128.96,124.44,128,124.03,127.46,123.51z"/>
	<path display="inline" fill="#853612" d="M123.53,131.71c0.41,0.09,0.88,0.38,1.47,0.38s1.05-0.29,1.47-0.38
		c0.62-0.14,1.2,0.03,1.89-0.04c-0.75-0.07-0.98-0.42-2.23-0.32c-0.4,0.04-0.57,0.2-1.13,0.2c-0.57,0-0.73-0.16-1.14-0.2
		c-1.25-0.1-1.47,0.25-2.22,0.32C122.33,131.74,122.91,131.58,123.53,131.71z"/>
	<path display="inline" fill="#853612" d="M127.46,123.05c0.32,0.37,1.44,0.92,2.58,0.92c1,0,2.16-0.28,2.97-1.1
		c-0.35-0.29-1.56-1.49-3.13-1.39C128.57,121.56,127.85,122.41,127.46,123.05z M128.03,123.06c0.39-0.57,0.86-0.91,1.39-1.03
		c-0.2,0.2-0.33,0.47-0.33,0.78c0,0.36,0.18,0.68,0.45,0.88C129.06,123.6,128.56,123.39,128.03,123.06z M131.27,122.82
		c0-0.26-0.09-0.51-0.25-0.69c0.48,0.15,0.92,0.39,1.36,0.73c-0.44,0.46-1,0.76-1.61,0.87C131.07,123.54,131.27,123.2,131.27,122.82
		z"/>
	<path display="inline" fill="#853612" d="M127.28,126.72c-1.19-1.05-2-3.92-0.7-6.07c2.42-2.14,5.87-1.69,8.23,1.3
		c-2.86-5.2-6.94-3.69-8.79-1.91C124.62,122.97,125.76,126.15,127.28,126.72z"/>
	<path display="inline" fill="#853612" d="M125,130.32c-0.8-0.51-1.86-0.38-2.45,0.15c-0.41,0.37-0.98,1.07-1.6,1.26
		c0.4,0.13,1.57-0.76,1.78-0.86c1.17-0.55,1.4,0.07,2.26,0.07c0.86,0,1.09-0.63,2.26-0.07c0.2,0.1,1.37,0.99,1.78,0.86
		c-0.63-0.19-1.19-0.89-1.6-1.26C126.86,129.94,125.8,129.82,125,130.32z"/>
</g>
</svg>
